<?xml version="1.0" standalone="no"?>
<!DOCTYPE svg PUBLIC "-//W3C//DTD SVG 20010904//EN"
 "http://www.w3.org/TR/2001/REC-SVG-20010904/DTD/svg10.dtd">
<svg version="1.0" xmlns="http://www.w3.org/2000/svg"
 width="1000.000000pt" height="1000.000000pt" viewBox="0 0 1000.000000 1000.000000"
 preserveAspectRatio="xMidYMid meet">
<metadata>
Created by potrace 1.14, written by Peter Selinger 2001-2017
</metadata>
<g transform="translate(0.000000,1000.000000) scale(0.100000,-0.100000)"
fill="#000000" stroke="none">
<path d="M4787 7993 c18 -2 50 -2 70 0 21 2 7 4 -32 4 -38 0 -55 -2 -38 -4z"/>
<path d="M4544 7908 c-7 -11 37 -10 56 2 10 6 5 9 -18 8 -18 -1 -35 -5 -38
-10z"/>
<path d="M4624 7912 c4 -7 -3 -14 -19 -18 -13 -3 -23 -9 -21 -13 6 -8 54 -7
63 2 3 4 15 7 25 7 10 0 18 5 18 10 0 6 -6 10 -12 10 -7 0 -24 3 -37 7 -17 4
-22 3 -17 -5z"/>
<path d="M4485 7880 c-3 -5 -2 -10 4 -10 5 0 13 5 16 10 3 6 2 10 -4 10 -5 0
-13 -4 -16 -10z"/>
<path d="M4760 7870 c0 -5 7 -10 16 -10 8 0 12 5 9 10 -3 6 -10 10 -16 10 -5
0 -9 -4 -9 -10z"/>
<path d="M4389 7861 c-14 -5 -36 -14 -49 -21 -20 -10 -22 -10 -17 3 5 13 1 13
-26 -1 -27 -14 -29 -17 -12 -20 29 -6 48 -23 36 -35 -12 -12 -33 1 -25 15 5 7
-2 9 -20 4 -18 -4 -25 -3 -21 4 3 5 1 10 -5 10 -6 0 -13 -7 -16 -15 -4 -8 -10
-12 -15 -9 -5 3 -9 0 -9 -6 0 -6 -12 -15 -26 -20 -15 -6 -22 -14 -18 -22 5 -8
2 -9 -9 -5 -13 5 -17 1 -17 -19 0 -19 -4 -25 -15 -20 -8 3 -26 1 -40 -4 -25
-9 -37 4 -12 13 9 4 9 6 0 6 -7 1 -29 -15 -49 -34 -40 -40 -58 -45 -49 -14 6
17 0 15 -42 -14 -26 -19 -58 -38 -70 -41 -11 -4 -24 -14 -28 -24 -5 -14 -7
-14 -15 -2 -7 10 -10 11 -10 3 0 -7 -18 -16 -40 -19 -45 -7 -53 -14 -41 -33 6
-10 11 -9 24 3 9 10 17 12 19 5 2 -7 12 -7 33 0 l30 11 -30 -25 c-16 -14 -37
-25 -45 -25 -31 -1 -70 -50 -40 -50 6 0 10 4 10 9 0 5 9 7 20 4 14 -4 20 0 20
11 0 9 7 16 15 16 8 0 15 4 15 9 0 5 9 13 20 16 13 4 20 15 20 31 0 13 4 24
10 24 5 0 7 -7 4 -15 -8 -21 15 -19 54 5 18 11 39 20 47 20 8 0 15 4 15 8 0 4
10 8 22 9 11 1 24 7 28 14 4 6 12 9 18 5 5 -3 13 4 16 17 l7 22 9 -23 c8 -20
15 -23 40 -17 26 6 29 4 23 -11 -4 -12 -2 -15 8 -12 13 4 15 8 18 44 1 13 4
14 15 5 10 -8 23 -4 57 19 24 16 50 30 58 30 7 0 11 6 8 14 -4 10 9 22 41 38
26 12 50 22 54 20 4 -1 5 5 2 13 -3 8 -11 13 -17 12 -7 -1 -11 4 -9 11 1 6 -3
12 -9 12 -5 0 -7 5 -3 11 3 6 16 8 28 5 22 -6 76 13 76 26 0 10 -37 9 -71 -1z
m-99 -85 c0 -2 -7 -7 -16 -10 -8 -3 -12 -2 -9 4 6 10 25 14 25 6z m-76 -41 c3
-8 1 -15 -4 -15 -6 0 -10 7 -10 15 0 8 2 15 4 15 2 0 6 -7 10 -15z m-97 -51
c-3 -3 -12 -4 -19 -1 -8 3 -5 6 6 6 11 1 17 -2 13 -5z m-162 -44 c4 -6 11 -7
17 -4 7 4 8 2 4 -5 -4 -6 -12 -9 -17 -5 -6 3 -21 -4 -35 -17 -13 -12 -24 -17
-24 -11 0 7 4 12 9 12 5 0 11 9 14 20 6 21 22 26 32 10z"/>
<path d="M5448 7823 c7 -3 16 -2 19 1 4 3 -2 6 -13 5 -11 0 -14 -3 -6 -6z"/>
<path d="M5590 7751 c0 -5 5 -13 10 -16 6 -3 10 -2 10 4 0 5 -4 13 -10 16 -5
3 -10 2 -10 -4z"/>
<path d="M5795 7740 c17 -11 34 -20 39 -20 5 0 17 -7 27 -16 10 -9 31 -17 47
-18 16 -1 36 -7 45 -14 9 -8 24 -12 34 -9 15 4 15 5 -3 6 -11 0 -29 10 -39 21
-12 13 -25 18 -37 14 -12 -3 -17 -1 -16 6 2 7 -4 14 -12 15 -8 2 -35 10 -59
19 -57 21 -62 20 -26 -4z"/>
<path d="M4995 7740 c6 -10 -2 -11 -39 -6 -31 5 -46 4 -46 -4 0 -6 5 -8 11 -4
6 3 15 1 19 -6 4 -7 21 -13 38 -14 17 0 28 -4 25 -8 -2 -5 0 -8 6 -8 14 0 22
16 13 24 -4 4 -7 13 -7 19 0 5 -6 12 -14 15 -9 3 -11 0 -6 -8z"/>
<path d="M5030 7735 c0 -13 4 -14 23 -4 33 17 33 19 4 19 -18 0 -27 -5 -27
-15z"/>
<path d="M3930 7730 c-8 -5 -10 -10 -5 -10 6 0 17 5 25 10 8 5 11 10 5 10 -5
0 -17 -5 -25 -10z"/>
<path d="M5103 7728 c3 -10 -37 -37 -63 -42 -18 -4 -28 -19 -23 -33 4 -11 3
-14 -5 -9 -7 4 -12 1 -12 -7 0 -16 -84 -50 -95 -39 -4 4 -5 0 -3 -8 2 -11 -7
-16 -29 -18 -20 -2 -33 -9 -33 -17 0 -9 -6 -12 -15 -9 -10 4 -13 13 -9 26 5
17 2 19 -23 16 -16 -2 -27 -8 -25 -15 1 -7 -7 -13 -18 -13 -21 0 -27 -15 -10
-25 15 -9 3 -24 -18 -23 -9 1 -28 -2 -42 -6 -19 -6 -21 -5 -10 3 17 12 16 12
-22 16 -15 2 -32 -3 -39 -11 -6 -8 -21 -14 -32 -14 -20 0 -20 0 -1 18 27 24
30 46 5 33 -14 -8 -29 -7 -55 4 -32 13 -52 6 -27 -10 6 -3 6 -17 0 -35 -10
-26 -14 -29 -42 -23 -18 3 -34 7 -36 9 -6 5 27 34 38 34 6 0 8 7 4 16 -5 12
-17 15 -59 11 -37 -3 -54 -1 -54 7 0 6 -7 2 -15 -8 -8 -11 -18 -17 -21 -13
-11 10 16 37 37 37 11 0 19 5 19 10 0 6 -4 10 -10 10 -5 0 -10 5 -10 11 0 8 4
9 13 0 8 -6 17 -7 22 -3 4 4 5 -4 1 -18 -3 -14 -3 -19 0 -12 3 6 11 12 18 12
9 0 12 9 8 25 -4 24 -22 36 -22 14 0 -6 -9 -8 -20 -4 -13 4 -22 1 -26 -10 -4
-10 -13 -13 -25 -10 -20 7 -47 -29 -29 -40 17 -10 11 -22 -13 -27 -18 -4 -23
0 -23 16 1 28 -48 32 -74 6 -11 -11 -20 -14 -22 -8 -3 7 -21 3 -52 -12 -54
-28 -68 -42 -35 -37 13 2 25 9 27 16 3 9 7 9 18 0 8 -6 14 -8 14 -3 0 5 4 4 8
-3 11 -17 52 -5 45 13 -3 8 1 14 11 14 9 0 16 6 16 14 0 9 7 12 20 9 18 -5 18
-6 3 -27 -23 -30 -55 -44 -97 -41 -19 1 -35 -1 -34 -4 0 -3 0 -13 -1 -21 -1
-13 -3 -13 -10 -1 -8 12 -12 12 -25 2 -8 -7 -20 -10 -26 -6 -5 3 -24 -3 -40
-15 -17 -12 -30 -18 -30 -13 0 4 -5 0 -11 -9 -5 -10 -17 -18 -24 -18 -8 0 -15
-3 -15 -8 0 -4 -10 -12 -21 -17 -21 -9 -27 -33 -8 -28 12 4 11 -9 0 -40 -13
-33 13 -46 31 -17 15 24 25 25 45 5 8 -8 20 -13 26 -9 7 3 3 -2 -8 -11 -18
-14 -18 -17 -4 -25 11 -6 15 -18 12 -34 -4 -18 0 -25 14 -28 16 -4 15 -6 -7
-17 -14 -7 -33 -29 -44 -51 -17 -35 -17 -40 -2 -61 9 -13 16 -18 16 -11 0 6 5
12 10 12 12 0 9 -82 -2 -91 -5 -3 -9 -17 -10 -32 -2 -20 -5 -23 -15 -15 -7 6
-13 7 -13 2 0 -18 16 -33 43 -39 15 -4 27 -12 27 -19 0 -6 7 -3 14 7 19 24 29
21 22 -7 -8 -32 5 -39 48 -28 19 6 49 6 68 2 28 -7 30 -8 8 -10 -25 -2 -25 -2
4 -12 23 -9 30 -8 38 6 7 13 12 14 28 3 11 -6 20 -15 20 -20 0 -4 -4 -5 -10
-2 -5 3 -10 1 -10 -5 0 -6 -11 -15 -25 -20 -14 -5 -25 -13 -25 -18 0 -5 -18
-19 -41 -31 -31 -18 -38 -26 -28 -32 11 -7 10 -9 -3 -9 -10 0 -18 -5 -18 -11
0 -5 5 -7 10 -4 6 3 10 -1 10 -10 0 -9 5 -13 10 -10 6 3 10 -1 10 -10 0 -12
-5 -15 -16 -11 -11 4 -22 -1 -31 -14 -8 -11 -19 -20 -25 -20 -6 0 -17 -8 -25
-17 -13 -16 -14 -16 -9 -1 4 15 2 15 -32 2 -20 -8 -46 -19 -57 -24 -11 -6 -37
-12 -57 -15 -48 -5 -78 -21 -78 -41 0 -8 5 -12 10 -9 6 3 17 -1 26 -9 8 -9 11
-16 4 -16 -8 0 -8 -6 0 -20 6 -11 16 -17 25 -14 8 4 12 10 9 15 -3 5 -10 6
-16 3 -6 -4 -8 -3 -5 3 3 5 20 8 37 5 l30 -4 -35 -30 c-19 -17 -35 -36 -35
-42 0 -6 5 -3 11 7 5 9 15 17 22 17 8 0 8 -3 -2 -9 -8 -5 -11 -17 -6 -32 5
-18 4 -20 -4 -10 -8 12 -11 10 -16 -12 -4 -15 -12 -24 -19 -21 -6 3 -2 -2 9
-11 20 -17 19 -17 -7 -13 -20 4 -28 0 -32 -15 -3 -12 -9 -16 -17 -11 -7 4 -10
3 -6 -4 9 -14 -3 -43 -14 -36 -5 3 -9 1 -9 -5 0 -18 -55 -96 -70 -99 -8 -2
-20 -10 -27 -19 -6 -8 -16 -12 -22 -8 -7 4 -8 0 -4 -11 4 -12 3 -15 -5 -10 -7
4 -12 2 -12 -5 0 -6 -8 -9 -20 -6 -11 3 -23 1 -26 -4 -3 -5 1 -9 8 -9 7 -1 -3
-9 -22 -18 -29 -14 -35 -23 -35 -49 -1 -17 -8 -40 -16 -50 -9 -10 -16 -29 -17
-43 -1 -18 1 -21 8 -11 4 8 6 20 3 28 -9 23 12 14 22 -9 6 -13 18 -22 28 -22
9 1 17 -2 17 -8 0 -5 5 -6 10 -3 6 3 10 1 10 -4 0 -15 27 -14 36 1 5 8 2 9 -9
5 -24 -9 -21 2 6 23 12 10 19 22 14 26 -4 4 -19 -3 -34 -17 l-28 -24 20 25
c25 31 43 43 76 51 15 3 26 1 27 -5 0 -6 4 -21 7 -33 5 -15 3 -23 -4 -23 -11
0 -15 13 -12 38 2 16 -7 15 -25 -2 -20 -21 -18 -26 16 -37 33 -12 40 -29 13
-30 -16 0 -16 -1 1 -8 18 -7 18 -8 2 -14 -10 -4 -23 -4 -28 0 -7 4 -8 1 -2 -8
5 -8 7 -23 6 -34 -2 -17 -1 -17 7 -5 9 13 11 13 11 -2 0 -26 -19 -22 -30 7 -5
14 -15 25 -22 24 -10 0 -10 -2 0 -6 10 -4 9 -10 -5 -26 -16 -19 -16 -20 -1 -8
28 21 35 -12 9 -40 -11 -12 -18 -27 -14 -32 4 -6 11 -3 18 6 7 9 16 13 20 9 5
-4 5 -2 2 4 -9 16 19 39 28 24 5 -7 11 -5 20 7 11 14 16 15 26 6 9 -9 3 -15
-27 -28 -34 -14 -36 -17 -22 -31 18 -18 38 -11 38 13 0 9 3 14 6 11 3 -4 17 0
32 8 29 15 47 8 19 -7 -9 -6 -15 -14 -12 -20 4 -5 2 -9 -4 -9 -18 0 0 -30 28
-45 14 -8 20 -14 14 -15 -17 0 -17 -30 0 -30 16 0 49 34 45 46 -2 5 4 19 13
32 l17 23 26 -24 c27 -25 39 -86 14 -71 -9 5 -8 2 1 -10 8 -9 21 -14 30 -11
14 6 -19 -39 -44 -57 -6 -5 -4 -12 5 -18 13 -8 12 -10 -4 -10 -12 0 -16 -5
-13 -14 4 -9 -1 -17 -11 -19 -15 -4 -15 -5 1 -6 10 0 15 -5 12 -11 -6 -10 15
-14 44 -11 7 2 10 -2 6 -9 -4 -7 -16 -10 -26 -7 -10 3 -24 -2 -31 -11 -11 -13
-11 -15 2 -10 11 4 15 -2 15 -23 1 -16 -2 -29 -6 -29 -4 0 -6 -8 -5 -17 1 -13
-6 -18 -24 -18 -21 0 -26 -6 -28 -34 -2 -19 1 -31 6 -27 5 3 15 -1 21 -8 10
-11 8 -16 -10 -21 -17 -6 -19 -9 -8 -16 12 -7 11 -9 -1 -9 -12 0 -12 -2 -1 -9
9 -6 10 -11 2 -15 -6 -4 -11 -22 -10 -39 0 -18 3 -26 6 -19 2 6 12 12 21 12
10 0 13 -3 6 -8 -6 -4 -8 -18 -5 -31 l6 -23 25 22 c17 14 21 23 12 26 -13 6
-7 24 9 24 6 0 7 -4 4 -10 -3 -5 0 -10 8 -10 13 0 15 6 18 48 1 9 13 30 28 45
15 17 22 31 15 35 -5 4 -9 12 -9 17 1 13 24 53 25 41 0 -12 30 14 30 26 0 6
-8 5 -17 -2 -10 -7 -4 1 14 18 23 22 28 32 17 34 -11 2 -9 6 7 16 11 8 18 9
14 3 -3 -6 2 -11 13 -11 22 0 51 30 77 82 10 20 27 47 37 60 l19 23 -12 -25
c-6 -14 -21 -38 -31 -53 -16 -22 -17 -31 -8 -42 10 -12 8 -15 -11 -16 -18 -1
-20 -2 -6 -6 10 -3 27 3 38 13 10 9 22 15 25 12 3 -3 -6 -14 -18 -24 -13 -11
-28 -26 -32 -34 -7 -12 -6 -13 5 -2 7 6 21 12 31 12 16 0 24 22 19 52 0 4 9
13 22 19 12 7 24 15 27 19 3 4 31 17 63 28 l57 22 -17 -26 c-17 -27 -17 -27 7
-19 14 4 31 10 38 12 6 3 12 3 12 0 0 -10 -69 -39 -78 -33 -6 3 -13 -1 -16
-10 -3 -8 -10 -12 -16 -9 -5 3 -10 0 -10 -7 0 -8 -5 -6 -11 5 -5 9 -7 22 -3
29 4 7 3 8 -4 4 -7 -4 -12 -15 -12 -25 0 -10 -8 -25 -17 -32 -15 -12 -16 -12
-8 1 13 21 15 40 5 40 -11 0 -23 -37 -15 -49 6 -11 64 -9 83 2 6 5 18 5 25 1
7 -5 6 0 -3 11 -10 13 -11 16 -2 11 8 -5 20 -2 30 6 30 26 42 30 36 14 -3 -9
-9 -14 -13 -12 -3 2 -12 -2 -19 -10 -23 -25 10 -16 61 16 26 17 50 30 52 30
10 0 -37 -42 -58 -51 -20 -9 -20 -9 5 -4 30 6 58 -2 58 -17 0 -6 -6 -8 -14 -5
-8 3 -20 -1 -26 -8 -11 -14 -66 -45 -79 -45 -3 0 11 11 32 25 43 30 46 35 13
33 -15 -1 -27 -10 -30 -21 -3 -11 -9 -16 -16 -12 -8 5 -7 11 2 23 12 15 11 16
-4 3 -10 -7 -16 -17 -13 -21 3 -4 0 -22 -6 -39 -10 -27 -13 -30 -27 -19 -10 8
-13 9 -9 1 5 -7 1 -9 -12 -6 -18 5 -24 32 -8 44 4 3 5 13 2 22 -6 14 -13 12
-61 -11 -46 -23 -54 -31 -51 -50 2 -12 0 -25 -4 -28 -5 -3 -9 0 -9 7 0 6 -18
-5 -40 -25 -26 -23 -50 -36 -68 -36 -26 1 -26 1 -8 15 10 8 22 12 27 10 4 -3
11 0 15 6 4 8 3 9 -4 5 -7 -4 -12 -3 -12 2 0 5 -7 9 -14 9 -8 0 -14 -5 -13
-11 1 -6 -11 -10 -28 -9 -16 0 -24 -1 -17 -4 10 -4 5 -14 -17 -37 -22 -22 -29
-37 -25 -53 5 -18 10 -20 29 -13 18 7 25 5 31 -8 4 -9 6 -21 5 -26 -1 -5 5 -4
13 4 9 7 16 19 16 26 0 8 9 14 21 14 13 0 18 -4 13 -12 -4 -7 -3 -8 5 -4 6 4
9 11 6 16 -3 5 4 14 15 20 11 6 20 18 20 27 0 9 3 13 7 10 9 -10 52 33 47 47
-2 6 4 21 15 32 10 11 22 30 25 41 7 21 34 38 45 28 3 -3 -1 -10 -9 -15 -13
-9 -13 -10 0 -10 8 -1 4 -5 -9 -11 -14 -5 -21 -15 -18 -23 3 -8 -3 -22 -14
-32 -26 -24 -25 -45 4 -40 12 2 21 9 19 16 -4 15 18 31 31 23 4 -2 3 -11 -3
-18 -8 -9 -5 -14 10 -18 11 -3 18 -1 15 3 -3 5 1 11 7 13 10 4 10 7 0 15 -11
7 -10 10 3 16 23 9 25 8 19 -9 -4 -8 -1 -21 5 -29 9 -11 8 -18 -4 -30 -9 -9
-12 -16 -7 -16 6 0 20 12 32 28 12 15 19 19 16 10 -3 -10 2 -21 11 -27 14 -8
14 -9 -4 -15 -16 -5 -22 -18 -27 -55 -5 -39 -13 -54 -39 -74 -17 -13 -44 -37
-59 -52 -16 -15 -28 -23 -28 -17 0 11 -39 13 -41 2 -6 -24 -5 -50 2 -50 5 0 6
-7 3 -15 -7 -18 42 -69 57 -59 5 3 7 8 5 12 -2 4 2 16 10 27 8 10 14 14 14 9
0 -6 -3 -14 -7 -18 -4 -4 -8 -15 -8 -24 0 -10 -12 -19 -32 -23 -18 -3 -33 -3
-33 2 0 5 5 9 11 9 8 0 8 4 -1 15 -9 11 -16 12 -30 3 -26 -17 -50 -71 -39 -90
5 -10 3 -33 -5 -62 -9 -28 -10 -43 -4 -40 6 4 25 7 42 7 17 -1 25 1 19 4 -19
7 -16 43 3 43 13 0 14 -3 5 -14 -9 -10 -9 -16 -1 -21 8 -5 5 -14 -10 -30 -19
-20 -20 -24 -6 -38 14 -14 13 -18 -10 -46 l-25 -30 23 -6 c16 -4 23 -14 25
-32 0 -14 6 -29 13 -33 8 -5 9 -10 2 -14 -6 -3 -10 -15 -9 -25 1 -12 8 -17 24
-15 13 1 21 -2 17 -7 -3 -5 2 -9 12 -9 12 0 15 -6 11 -21 -5 -17 -2 -20 13
-16 23 6 55 -26 46 -48 -3 -9 -2 -13 4 -10 6 3 13 0 16 -9 4 -9 14 -13 32 -10
31 6 19 -12 -13 -18 -11 -2 -19 -10 -17 -18 2 -7 -3 -17 -10 -22 -8 -5 3 -6
27 -3 35 4 41 2 42 -15 2 -21 -23 -28 -29 -8 -7 19 -38 1 -38 -22 0 -14 4 -19
12 -14 7 4 8 3 4 -4 -11 -18 -36 -15 -30 3 8 20 -3 19 -27 -4 -13 -12 -29 -16
-46 -13 -18 3 -24 1 -19 -6 5 -8 1 -10 -10 -5 -16 6 -15 7 2 20 15 11 16 13 1
13 -9 0 -20 -6 -24 -12 -4 -7 -19 -22 -32 -33 l-24 -20 8 25 c6 20 5 23 -5 13
-9 -8 -19 -9 -30 -3 -14 7 -40 7 -60 0 -3 -1 -13 -1 -24 0 -12 1 -16 -2 -10
-11 5 -9 2 -10 -9 -6 -10 3 -17 2 -17 -3 0 -6 -13 -24 -29 -40 -29 -31 -61
-40 -61 -17 0 6 -6 3 -12 -8 -18 -30 -31 -40 -53 -41 -11 0 -19 -5 -18 -12 2
-6 -3 -9 -11 -6 -20 8 -37 -20 -40 -65 -4 -50 -13 -62 -30 -39 -12 16 -15 15
-42 -12 -16 -16 -35 -30 -42 -30 -7 0 -10 -5 -7 -11 5 -7 16 -2 32 13 22 20
23 21 17 3 -8 -21 -50 -66 -56 -59 -2 2 -4 -7 -5 -19 l-2 -22 20 24 c27 33 24
19 -6 -25 -14 -21 -22 -40 -18 -43 5 -3 7 -13 7 -21 -1 -8 -2 -23 -3 -32 0 -9
-9 -19 -18 -22 -13 -4 -18 -16 -18 -41 -1 -30 3 -35 17 -32 15 4 16 2 7 -14
-5 -10 -14 -19 -20 -19 -6 0 -7 -5 -3 -12 4 -7 3 -8 -5 -4 -6 4 -18 3 -26 -4
-9 -7 -15 -8 -20 0 -3 5 1 10 9 10 10 0 13 6 9 17 -4 11 -8 12 -11 5 -2 -7
-13 -12 -24 -12 -24 0 -59 -31 -40 -38 6 -2 12 -8 12 -13 0 -6 -4 -8 -9 -5 -5
3 -12 -2 -15 -11 -5 -12 -10 -13 -18 -5 -6 6 -18 8 -27 5 -13 -4 -12 -2 2 10
11 9 17 23 14 34 -4 16 -5 16 -6 1 0 -10 -8 -18 -16 -18 -8 0 -14 6 -12 13 1
7 -6 11 -18 9 -17 -2 -17 -1 -5 8 13 9 13 11 0 19 -8 5 -17 8 -20 6 -16 -10
-70 -14 -70 -6 0 12 28 22 32 12 5 -13 48 7 48 21 0 10 -2 10 -8 1 -4 -7 -13
-9 -21 -4 -7 5 -10 14 -7 20 4 6 3 11 -1 11 -5 0 -14 -9 -21 -21 -7 -11 -18
-19 -25 -16 -6 2 -24 -14 -40 -35 -23 -32 -30 -37 -47 -28 -22 12 -34 29 -26
37 3 3 13 -2 22 -12 17 -17 19 -16 36 5 10 12 18 27 18 34 0 6 -9 -2 -19 -18
l-19 -28 -13 23 c-18 33 -19 78 -2 72 7 -3 10 -10 6 -16 -4 -6 -1 -7 6 -3 9 6
8 13 -6 26 -10 9 -21 16 -25 13 -12 -6 -9 15 2 22 12 8 12 16 0 35 -9 13 -11
13 -19 0 -6 -8 -6 -17 -1 -20 15 -9 -7 -33 -24 -27 -14 5 -15 11 -6 27 6 11 7
19 2 18 -14 -5 -72 44 -66 54 4 6 -2 7 -15 3 -22 -7 -28 4 -11 21 6 6 -8 9
-41 9 -27 0 -45 -1 -40 -3 17 -6 -12 -42 -33 -42 -14 0 -17 6 -14 23 3 14 0
24 -7 24 -7 0 -10 -10 -7 -24 3 -18 0 -23 -17 -23 -14 0 -20 -4 -15 -11 9 -16
-17 -61 -33 -55 -7 3 -13 0 -13 -6 0 -19 -61 -77 -75 -72 -7 3 -16 1 -19 -5
-4 -6 -14 -8 -24 -5 -11 4 -13 3 -5 -3 16 -12 12 -109 -4 -106 -8 2 -13 -7
-13 -21 0 -14 -4 -27 -10 -31 -5 -3 -6 -13 -3 -22 5 -14 8 -13 14 5 5 12 13
22 19 22 13 0 -14 -67 -37 -92 -9 -10 -13 -18 -8 -18 4 0 3 -6 -3 -12 -5 -7
-6 -22 -2 -33 4 -11 5 -26 2 -33 -2 -7 2 -19 9 -28 10 -12 10 -17 0 -23 -16
-10 -17 -121 0 -131 6 -4 9 -12 5 -18 -7 -12 18 -34 29 -24 5 4 5 1 1 -6 -13
-22 44 -93 213 -266 319 -327 747 -589 1186 -725 135 -41 417 -107 542 -126
371 -55 815 -11 1227 122 349 112 695 298 973 522 178 143 404 390 555 606 72
104 138 217 132 227 -4 6 -3 8 3 5 14 -9 152 275 211 433 55 148 106 324 99
343 -6 15 -6 16 -43 -122 -4 -16 -9 -20 -16 -13 -10 10 -2 74 16 137 4 11 -2
2 -13 -20 -11 -22 -20 -52 -20 -66 -1 -15 -7 -27 -13 -26 -35 1 -47 -5 -53
-25 -4 -13 -18 -37 -31 -55 -13 -17 -24 -41 -24 -52 0 -11 -4 -22 -9 -25 -4
-3 -21 -40 -36 -83 -28 -79 -52 -122 -70 -123 -13 0 -40 -42 -37 -57 3 -12
-16 -28 -23 -21 -3 2 3 26 13 53 14 39 23 50 40 50 12 0 22 3 22 8 0 28 -2 40
-7 30 -10 -26 -19 -12 -15 22 4 36 22 49 22 18 1 -16 2 -16 12 1 8 14 8 21 1
23 -11 4 2 83 15 93 4 3 12 20 19 38 9 27 9 32 -3 32 -9 0 -12 -4 -9 -10 3 -6
0 -10 -8 -10 -16 0 -16 60 0 100 6 14 11 54 11 89 1 35 6 69 12 75 9 8 11 0 8
-32 -3 -31 0 -41 9 -38 7 3 15 0 19 -6 4 -7 3 -8 -4 -4 -9 5 -11 -5 -8 -36 3
-34 8 -43 22 -43 13 0 20 8 22 25 2 21 1 22 -9 10 -9 -13 -10 -12 -5 3 3 10 6
22 6 25 0 4 5 0 10 -8 17 -24 24 -9 91 200 17 52 40 103 57 123 9 10 11 17 4
17 -6 0 -9 10 -5 23 3 12 13 61 23 108 9 48 20 92 24 98 4 6 3 11 -2 11 -5 0
-8 12 -6 28 2 16 1 19 -3 7 -10 -35 -34 -45 -63 -27 -14 9 -28 21 -33 27 -5 6
-12 4 -20 -6 -20 -26 -44 -29 -63 -8 -9 10 -23 19 -31 19 -8 0 -13 11 -13 29
0 16 -7 36 -15 45 -8 8 -15 21 -15 28 0 8 5 6 11 -5 12 -20 31 -13 22 8 -6 18
-53 20 -54 3 0 -7 -7 7 -15 32 -7 25 -12 51 -9 58 3 7 -5 12 -19 12 -13 0 -24
6 -23 13 1 46 -4 57 -27 57 -28 0 -50 30 -61 85 -9 44 -9 43 0 66 6 16 -17 30
-53 33 -7 1 -19 12 -27 26 -14 25 -18 33 -36 78 -5 12 -16 22 -24 22 -9 0 -13
5 -10 10 4 6 -8 35 -25 66 -30 52 -34 82 -8 56 7 -7 16 -12 20 -12 11 0 -45
79 -56 80 -6 0 -5 -5 2 -12 18 -18 15 -26 -11 -24 -17 1 -23 6 -20 17 7 24
-17 66 -27 49 -6 -9 -11 -7 -19 8 -6 11 -11 23 -11 25 0 11 36 1 47 -13 15
-19 17 -6 2 21 -5 11 -14 17 -18 14 -5 -2 -15 3 -22 12 -12 14 -12 16 1 11 15
-6 19 4 23 55 1 9 5 17 9 17 19 0 7 61 -16 81 -14 12 -22 27 -20 34 7 17 -22
40 -31 25 -16 -26 -17 -74 -1 -86 14 -10 15 -13 1 -24 -8 -7 -15 -20 -15 -29
0 -14 -2 -14 -10 -1 -7 10 -5 18 5 26 12 9 11 15 -6 40 -10 16 -19 25 -19 19
0 -5 -5 -3 -10 5 -5 8 -7 26 -5 40 3 14 2 19 -1 13 -9 -21 -23 -15 -17 7 3 11
13 20 22 20 15 1 15 2 -1 13 -10 8 -14 18 -8 26 6 10 12 7 25 -13 10 -14 20
-26 24 -26 3 0 7 23 8 50 1 28 -3 50 -8 50 -5 0 -9 -6 -9 -12 0 -10 -3 -9 -9
1 -5 8 -16 11 -30 6 -15 -5 -21 -2 -21 9 0 9 -5 16 -10 16 -11 0 -35 48 -32
63 1 4 -9 0 -23 -9 l-25 -16 32 -42 c18 -22 23 -33 12 -23 -11 9 -24 15 -27
12 -4 -3 -5 -2 -2 2 3 3 -7 21 -21 40 -14 18 -26 43 -27 54 -1 14 -7 19 -19
16 -10 -3 -18 -1 -18 5 0 5 -6 6 -12 2 -7 -4 -10 -3 -5 1 4 5 0 16 -9 26 -16
18 -41 15 -57 -5 -6 -7 -7 -4 -4 6 3 9 -1 22 -10 30 -14 11 -16 10 -11 -14 3
-16 2 -28 -3 -28 -4 0 -10 -8 -13 -18 -5 -13 -15 -18 -36 -17 -24 1 -28 -1
-18 -12 6 -7 8 -16 5 -20 -4 -3 -2 -12 5 -20 6 -7 8 -16 4 -20 -3 -3 -6 -1 -6
5 0 6 -7 9 -17 5 -10 -4 -14 -2 -9 5 13 21 -16 24 -35 3 -20 -21 -26 -36 -10
-27 9 6 25 -23 17 -31 -2 -2 -14 2 -25 9 -16 10 -25 10 -39 1 -9 -6 -16 -16
-15 -21 1 -5 -7 -8 -18 -5 -12 3 -24 1 -28 -4 -3 -6 -21 -8 -38 -6 -34 5 -35
7 -16 76 4 15 -10 21 -43 16 -4 0 -11 5 -16 13 -7 10 -8 10 -6 -2 5 -25 -16
-25 -27 -1 -6 14 -16 20 -27 17 -10 -2 -18 -1 -18 4 0 13 38 18 50 6 10 -8 11
-4 5 19 -3 16 -8 32 -10 33 -7 8 -65 -10 -60 -18 12 -20 -18 -20 -36 -1 -11
12 -24 21 -30 21 -6 0 -8 3 -5 8 2 4 -3 16 -11 27 -11 14 -14 15 -10 4 3 -9 0
-22 -6 -28 -16 -16 -31 -13 -17 4 10 11 8 19 -7 37 -17 22 -53 34 -53 18 0
-10 -56 -7 -67 3 -4 5 0 5 8 2 22 -8 46 22 31 37 -7 7 -12 19 -12 28 0 13 7
15 30 12 25 -3 30 0 35 21 4 14 4 30 1 35 -6 9 50 37 67 33 14 -2 7 12 -18 35
-30 27 -59 22 -49 -8 4 -14 2 -18 -5 -14 -25 16 0 66 32 66 8 0 17 9 20 20 3
11 10 20 16 20 7 0 7 -8 0 -27 -7 -20 -7 -29 1 -31 5 -2 18 -11 26 -20 15 -15
18 -14 30 3 19 25 18 11 -1 -25 -9 -17 -23 -30 -31 -30 -9 0 -14 -6 -12 -12 5
-15 57 -18 65 -5 3 5 -1 13 -8 18 -8 5 -9 9 -3 9 15 0 36 -25 27 -33 -3 -4 1
-7 10 -7 8 0 18 6 20 13 4 9 8 8 17 -3 9 -12 10 -6 8 25 -3 35 0 40 18 39 14
0 20 4 17 13 -3 7 -16 13 -29 13 -13 0 -24 5 -24 10 0 6 11 8 25 4 28 -7 35
10 8 20 -10 3 -24 9 -32 12 -10 5 -11 3 -5 -7 6 -10 2 -10 -16 2 -43 28 -36
38 26 33 32 -3 67 -10 78 -15 21 -10 21 -10 2 5 -19 15 -19 16 -1 16 16 0 16
2 -3 19 -27 22 -28 31 -4 31 14 0 15 2 2 10 -9 5 -19 5 -27 -2 -7 -6 -13 -7
-13 -2 0 4 -5 3 -12 -4 -7 -7 -20 -12 -29 -12 -9 0 -20 -7 -23 -16 -7 -19 -54
-12 -72 12 -6 7 -19 14 -29 14 -10 0 -15 5 -12 14 4 9 -4 13 -25 14 -16 0 -38
8 -47 16 -10 9 -23 16 -29 16 -7 0 -12 5 -12 10 0 13 6 13 30 0 15 -8 21 -5
34 22 16 31 16 32 -11 55 -16 12 -37 23 -48 23 -17 0 -17 2 -5 10 13 8 12 10
-3 10 -10 0 -20 7 -23 15 -4 8 -10 13 -15 10 -4 -3 -13 4 -19 15 -6 11 -8 20
-6 20 3 0 1 12 -5 26 -8 24 -8 25 6 14 8 -7 15 -21 15 -31 0 -25 12 -30 34
-13 18 13 18 15 3 32 -9 10 -17 23 -17 29 0 6 -11 10 -24 9 -22 -3 -24 0 -19
33 3 26 2 32 -5 22 -9 -12 -13 -12 -26 -2 -8 7 -19 10 -24 7 -13 -8 -53 24
-46 36 5 7 -1 9 -18 5 -26 -7 -48 11 -75 60 -10 17 -9 22 3 27 24 9 36 7 28
-6 -4 -7 -3 -8 4 -4 18 11 14 26 -7 26 -10 0 -33 6 -51 14 -34 14 -85 4 -102
-19 -4 -5 -8 0 -8 12 0 17 4 21 17 16 11 -4 14 -3 9 5 -10 16 -24 15 -42 -3
-26 -25 -47 -19 -40 11 5 17 3 23 -4 19 -5 -3 -10 -2 -10 4 0 5 -9 12 -19 16
-28 8 -36 34 -9 27 15 -4 19 -2 14 7 -5 8 -21 11 -42 8 -26 -4 -34 -1 -34 10
0 9 6 13 14 10 8 -3 17 1 20 9 3 8 12 14 21 14 13 0 14 4 4 23 -7 12 -14 35
-16 52 -4 34 -23 59 -23 30 0 -18 -1 -18 -16 3 -14 21 -41 22 -29 1 4 -5 0 -9
-7 -9 -7 0 -19 -9 -26 -20 -14 -22 -32 -18 -32 6 0 8 5 12 10 9 6 -3 15 -3 22
1 7 5 5 11 -7 21 -18 13 -18 13 1 14 10 0 28 3 39 5 11 3 30 5 42 6 26 1 38
25 21 45 -9 11 -9 16 3 24 8 5 20 9 28 9 22 0 6 11 -20 14 -42 6 -79 18 -79
26 0 5 24 3 53 -4 29 -7 58 -11 65 -8 22 7 13 42 -14 52 -14 6 -23 14 -20 19
4 5 2 21 -4 36 -8 20 -15 25 -29 20 -11 -3 -22 -1 -26 5 -5 8 -12 7 -23 -2
-13 -11 -15 -10 -9 5 4 10 3 16 -2 13 -5 -3 -11 3 -14 13 -2 10 -17 21 -33 24
-38 7 -40 3 -6 -13 15 -8 29 -16 31 -17 2 -1 -2 -10 -10 -20 -10 -12 -10 -15
-1 -9 7 4 19 3 26 -3 7 -6 20 -9 28 -6 9 4 18 -1 21 -9 5 -12 0 -16 -16 -15
-49 3 -82 15 -82 30 -1 45 -54 57 -76 18 -11 -21 -49 -22 -68 -2 -9 10 -6 13
16 14 50 2 56 4 60 15 6 18 -38 25 -54 8 -20 -19 -50 -20 -34 0 10 12 7 14
-21 11 -18 -1 -45 -8 -60 -14 -22 -8 -28 -8 -28 3 0 8 -7 17 -16 20 -25 9 -54
7 -54 -5 0 -5 6 -7 13 -3 8 5 8 3 -1 -7 -11 -12 -15 -11 -26 4 -15 20 -30 23
-23 5z m347 -58 c0 -5 -2 -10 -4 -10 -2 0 -12 -3 -22 -7 -16 -6 -17 -5 -4 10
17 19 30 22 30 7z m-397 -7 c-7 -2 -19 -2 -25 0 -7 3 -2 5 12 5 14 0 19 -2 13
-5z m-3 -29 c0 -8 -4 -12 -10 -9 -5 3 -10 10 -10 16 0 5 5 9 10 9 6 0 10 -7
10 -16z m30 -3 c0 -5 8 -12 18 -15 10 -3 7 -4 -7 -3 -24 2 -44 27 -22 27 6 0
11 -4 11 -9z m-124 -56 c-16 -17 -36 -20 -36 -6 0 8 17 16 43 20 5 0 2 -6 -7
-14z m559 -5 c3 -5 -1 -10 -9 -10 -8 0 -18 5 -21 10 -3 6 1 10 9 10 8 0 18 -4
21 -10z m-270 -10 c-3 -5 -12 -7 -20 -3 -21 7 -19 13 6 13 11 0 18 -4 14 -10z
m-26 -61 c-10 -6 -10 -11 1 -23 11 -14 10 -16 -4 -10 -19 7 -20 12 -3 47 9 20
13 22 15 11 2 -9 -2 -20 -9 -25z m151 32 c0 -10 -30 -24 -37 -17 -3 3 -2 9 2
15 8 13 35 15 35 2z m94 -10 c3 -5 0 -11 -7 -14 -8 -3 -14 1 -14 9 0 16 13 19
21 5z m-624 -11 c0 -5 -7 -10 -15 -10 -8 0 -15 5 -15 10 0 6 7 10 15 10 8 0
15 -4 15 -10z m740 2 c0 -5 -7 -9 -15 -9 -8 0 -12 4 -9 9 3 4 9 8 15 8 5 0 9
-4 9 -8z m-810 -12 c0 -5 -5 -10 -11 -10 -5 0 -7 5 -4 10 3 6 8 10 11 10 2 0
4 -4 4 -10z m290 -4 c0 -3 -4 -8 -10 -11 -5 -3 -10 -1 -10 4 0 6 5 11 10 11 6
0 10 -2 10 -4z m100 0 c0 -3 -4 -8 -10 -11 -5 -3 -10 -1 -10 4 0 6 5 11 10 11
6 0 10 -2 10 -4z m380 -36 c9 -6 10 -10 3 -10 -6 0 -19 -3 -27 -6 -12 -5 -15
-2 -10 10 7 18 13 20 34 6z m-380 -31 c0 -4 -11 -2 -25 4 -14 7 -25 15 -25 19
0 4 11 2 25 -4 14 -6 25 -15 25 -19z m-870 1 c0 -5 -2 -10 -4 -10 -3 0 -8 5
-11 10 -3 6 -1 10 4 10 6 0 11 -4 11 -10z m1132 -32 c-7 -7 -12 -8 -12 -2 0
14 12 26 19 19 2 -3 -1 -11 -7 -17z m-322 8 c0 -9 -40 -13 -46 -5 -3 5 6 9 20
9 14 0 26 -2 26 -4z m-33 -43 c-8 -7 -37 9 -31 19 3 5 12 4 20 -3 8 -6 13 -14
11 -16z m518 -13 c-21 -8 -35 -4 -35 9 0 5 12 6 27 3 24 -5 25 -6 8 -12z
m-235 -60 c0 -5 -5 -10 -11 -10 -5 0 -7 5 -4 10 3 6 8 10 11 10 2 0 4 -4 4
-10z m144 -41 c-8 -13 48 -8 57 4 4 5 9 -3 11 -17 6 -28 -17 -45 -26 -20 -4
10 -13 13 -26 9 -11 -4 -20 -2 -20 4 0 6 -7 11 -15 11 -23 0 -18 16 5 17 12 1
18 -3 14 -8z m-1324 -74 c0 -8 -2 -15 -4 -15 -2 0 -6 7 -10 15 -3 8 -1 15 4
15 6 0 10 -7 10 -15z m803 4 c-8 -8 -8 -20 -3 -35 7 -18 6 -22 -9 -21 -23 1
-49 27 -27 27 8 0 18 9 21 20 3 11 11 20 18 20 8 0 8 -3 0 -11z m627 -15 c0
-2 -9 0 -20 6 -11 6 -20 13 -20 16 0 2 9 0 20 -6 11 -6 20 -13 20 -16z m-585
-4 c8 -13 -14 -80 -26 -80 -14 0 -11 20 6 36 17 18 20 34 5 34 -5 0 -10 5 -10
10 0 13 17 13 25 0z m825 -36 c0 -20 -13 -17 -27 5 -10 16 -9 18 8 14 10 -3
19 -12 19 -19z m-358 -195 c-7 -31 -9 -32 -14 -11 -3 12 -2 22 3 22 5 0 9 8 9
17 0 9 3 14 6 11 3 -3 1 -21 -4 -39z m458 31 c0 -5 -2 -10 -4 -10 -3 0 -8 5
-11 10 -3 6 -1 10 4 10 6 0 11 -4 11 -10z m-1760 -61 c0 -5 -7 -9 -15 -9 -15
0 -20 12 -9 23 8 8 24 -1 24 -14z m1354 6 c-4 -8 -16 -15 -28 -15 -20 1 -20 1
4 15 31 18 30 18 24 0z m-424 -15 c0 -5 -4 -10 -10 -10 -5 0 -10 5 -10 10 0 6
5 10 10 10 6 0 10 -4 10 -10z m665 -16 c9 -15 12 -23 6 -20 -11 7 -35 46 -28
46 3 0 12 -12 22 -26z m-1505 9 c0 -14 -19 -38 -25 -32 -8 8 5 39 16 39 5 0 9
-3 9 -7z m1280 -13 c0 -5 -4 -10 -10 -10 -5 0 -10 5 -10 10 0 6 5 10 10 10 6
0 10 -4 10 -10z m30 -41 c-11 -8 -6 -9 23 -7 33 4 51 -5 27 -14 -5 -1 -7 -13
-3 -26 3 -14 11 -21 19 -18 16 6 19 -5 4 -20 -5 -5 -6 -15 -1 -22 6 -10 13 -8
33 8 33 25 35 25 40 -5 4 -18 1 -25 -10 -25 -13 0 -13 -3 -4 -12 19 -19 14
-25 -28 -32 -22 -3 -40 -11 -40 -16 0 -6 -4 -10 -10 -10 -16 0 -7 24 13 32 17
7 17 8 0 25 -20 20 -69 28 -78 13 -13 -21 -23 -9 -16 18 5 15 13 26 20 25 16
-4 13 8 -6 24 -17 14 -17 14 0 9 9 -3 17 -1 17 4 0 6 -6 10 -13 10 -20 0 -58
30 -52 41 4 5 23 9 43 9 29 0 34 -3 22 -11z m-1133 -34 c-7 -13 -14 -20 -15
-14 -2 5 2 16 8 24 18 21 20 18 7 -10z m1639 -43 c-19 -4 -21 -19 -4 -24 7 -3
2 -7 -10 -10 -18 -5 -22 -2 -22 15 0 19 -6 22 -39 22 -38 0 -47 -17 -15 -29
21 -8 17 -25 -5 -19 -10 3 -22 0 -25 -6 -4 -6 -12 -11 -18 -11 -6 0 -4 8 5 18
22 24 21 35 -1 28 -12 -4 -18 -1 -18 12 -1 9 -4 26 -8 37 -7 19 -7 19 8 1 8
-10 21 -16 28 -13 7 2 23 0 36 -4 19 -7 24 -5 33 18 l10 26 30 -29 c23 -22 27
-30 15 -32z m-576 6 c0 -4 -8 -8 -19 -8 -14 0 -17 6 -13 27 5 25 6 25 18 8 8
-10 14 -22 14 -27z m-390 -8 c0 -5 -5 -10 -11 -10 -5 0 -7 5 -4 10 3 6 8 10
11 10 2 0 4 -4 4 -10z m781 -33 c-11 -14 5 -32 44 -55 17 -9 17 -10 -5 -22
-15 -8 -20 -8 -16 -1 6 10 -15 41 -27 41 -7 0 -19 -43 -17 -60 1 -8 9 -23 17
-32 15 -16 15 -18 -1 -18 -9 0 -15 4 -12 9 3 5 -1 11 -9 15 -8 3 -17 1 -20 -4
-4 -6 -1 -10 4 -10 22 0 10 -19 -20 -34 -30 -15 -31 -15 -26 4 3 11 1 20 -5
20 -5 0 -6 5 -3 10 3 6 1 10 -4 10 -6 0 -11 7 -11 15 0 13 -18 20 -42 16 -17
-2 5 27 28 37 13 7 24 16 24 22 0 6 5 8 10 5 6 -3 10 -1 10 4 0 6 7 11 15 11
8 0 15 -4 15 -10 0 -5 4 -10 9 -10 10 0 9 26 -2 36 -12 12 -8 26 6 21 8 -3 20
-1 28 4 18 11 25 -7 10 -24z m-1134 -29 c-3 -7 -5 -2 -5 12 0 14 2 19 5 13 2
-7 2 -19 0 -25z m993 -3 c0 -8 -4 -15 -10 -15 -5 0 -7 7 -4 15 4 8 8 15 10 15
2 0 4 -7 4 -15z m315 6 c-3 -2 0 -10 6 -17 8 -10 6 -12 -10 -9 -18 3 -19 1
-10 -23 6 -15 22 -42 35 -59 14 -18 23 -33 20 -33 -4 0 -9 0 -13 0 -5 0 -8 5
-8 10 0 6 -5 14 -11 18 -6 4 -14 17 -18 28 -8 26 -38 55 -62 58 -29 4 -28 25
0 22 14 -2 23 1 20 6 -3 4 8 7 25 6 17 -1 28 -4 26 -7z m-465 -26 c0 -8 -2
-15 -4 -15 -2 0 -6 7 -10 15 -3 8 -1 15 4 15 6 0 10 -7 10 -15z m-1410 -15 c0
-5 -4 -10 -10 -10 -5 0 -10 5 -10 10 0 6 5 10 10 10 6 0 10 -4 10 -10z m1408
-44 c3 -15 1 -16 -17 -6 -12 6 -19 16 -15 21 9 15 28 5 32 -15z m-283 4 c-3
-5 -11 -10 -16 -10 -6 0 -7 5 -4 10 3 6 11 10 16 10 6 0 7 -4 4 -10z m-1156
-45 c0 -5 -6 -1 -14 9 -8 11 -15 24 -15 30 0 5 7 1 15 -10 8 -10 14 -23 14
-29z m91 14 c0 -6 -4 -7 -10 -4 -5 3 -10 11 -10 16 0 6 5 7 10 4 6 -3 10 -11
10 -16z m30 11 c0 -5 -4 -10 -10 -10 -5 0 -10 5 -10 10 0 6 5 10 10 10 6 0 10
-4 10 -10z m840 -15 c0 -8 -4 -15 -10 -15 -5 0 -7 7 -4 15 4 8 8 15 10 15 2 0
4 -7 4 -15z m124 -3 c6 -10 -30 -52 -44 -52 -5 0 -12 5 -15 10 -3 6 3 10 14
10 14 0 21 6 21 20 0 20 14 27 24 12z m-1194 -32 c0 -5 -4 -10 -10 -10 -5 0
-10 5 -10 10 0 6 5 10 10 10 6 0 10 -4 10 -10z m135 1 c10 -17 -12 -21 -25 -6
-10 12 -10 15 3 15 9 0 18 -4 22 -9z m35 -5 c0 -10 -23 -66 -27 -66 -7 0 -33
28 -33 35 0 4 9 5 20 2 15 -4 20 0 20 14 0 10 5 19 10 19 6 0 10 -2 10 -4z
m1770 -11 c25 -14 25 -14 2 -15 -19 0 -21 -4 -16 -26 6 -22 4 -25 -7 -18 -8 4
-23 7 -34 6 -15 -2 -21 3 -21 17 0 11 6 23 13 25 7 3 10 -1 6 -10 -3 -7 0 -14
6 -14 10 0 16 21 12 43 -2 11 11 8 39 -8z m-1952 -30 c-3 -3 -9 2 -12 12 -6
14 -5 15 5 6 7 -7 10 -15 7 -18z m2125 9 c-3 -8 -9 -14 -13 -14 -4 0 -13 6
-19 14 -9 11 -7 14 13 14 17 0 23 -5 19 -14z m-2158 -12 c-3 -3 -11 0 -18 7
-9 10 -8 11 6 5 10 -3 15 -9 12 -12z m123 6 c26 4 26 3 7 -11 -32 -23 -65 -31
-65 -15 0 17 24 42 28 30 1 -5 15 -7 30 -4z m1912 1 c0 -5 4 -8 10 -4 5 3 17
1 27 -5 10 -5 30 -14 46 -20 27 -9 36 -33 17 -45 -5 -3 -10 1 -10 9 0 15 -68
51 -78 41 -3 -3 -1 -5 5 -5 6 0 33 -22 61 -50 28 -27 44 -50 37 -50 -7 0 -37
25 -66 55 -41 43 -55 52 -66 43 -20 -16 -27 -3 -11 21 14 22 28 28 28 10z
m304 5 c9 -3 13 -10 10 -15 -3 -5 -10 -6 -16 -3 -7 4 -8 2 -4 -4 4 -7 14 -12
22 -12 8 0 14 -4 14 -10 0 -20 -45 8 -46 29 -1 24 -2 23 20 15z m-2398 -29
c-4 -15 -2 -25 4 -25 6 0 3 -11 -6 -25 -9 -14 -21 -25 -26 -25 -5 0 -2 7 7 16
10 11 13 19 6 23 -6 4 -7 12 -1 21 13 21 12 33 -2 24 -7 -4 -8 -3 -4 4 13 22
28 13 22 -13z m1132 -36 c-3 -8 -7 -3 -11 10 -4 17 -3 21 5 13 5 -5 8 -16 6
-23z m-998 2 c14 -26 13 -42 -2 -38 -7 1 -12 -5 -12 -14 1 -9 -4 -16 -11 -16
-7 0 -10 8 -7 19 4 17 0 19 -27 15 -17 -3 -29 -1 -25 4 8 13 -10 11 -24 -3
-16 -16 -21 -7 -11 20 8 22 41 32 37 10 -2 -7 12 -12 37 -13 22 -1 34 0 28 2
-15 5 -18 33 -3 33 5 0 14 -9 20 -19z m54 -7 c3 -8 2 -12 -4 -9 -6 3 -10 1
-10 -6 0 -7 -2 -10 -5 -7 -5 5 4 38 10 38 2 0 6 -7 9 -16z m142 -32 c-18 -16
-18 -16 -6 6 6 13 14 21 18 18 3 -4 -2 -14 -12 -24z m974 4 c0 -3 -4 -8 -10
-11 -5 -3 -10 -1 -10 4 0 6 5 11 10 11 6 0 10 -2 10 -4z m140 -48 c0 -4 -6 -5
-14 -2 -8 3 -12 12 -9 21 5 12 7 12 14 1 5 -7 9 -16 9 -20z m-400 9 c0 -2 -10
-12 -22 -23 l-23 -19 19 23 c18 21 26 27 26 19z m-590 -17 c0 -5 -4 -10 -10
-10 -5 0 -10 5 -10 10 0 6 5 10 10 10 6 0 10 -4 10 -10z m63 -10 c3 -12 -5
-34 -19 -55 -13 -19 -19 -35 -14 -35 6 0 10 -4 10 -10 0 -5 -9 -10 -20 -10
-22 0 -27 19 -9 37 7 7 6 15 -5 26 -14 13 -14 16 -1 21 9 3 14 11 13 18 -2 7
2 12 9 13 6 0 15 3 19 8 10 10 11 9 17 -13z m1417 0 c0 -5 -2 -10 -4 -10 -3 0
-8 5 -11 10 -3 6 -1 10 4 10 6 0 11 -4 11 -10z m-240 -10 c0 -5 -4 -10 -10
-10 -5 0 -10 5 -10 10 0 6 5 10 10 10 6 0 10 -4 10 -10z m-1540 -27 c0 -12 -3
-13 -13 -4 -8 6 -17 8 -20 4 -4 -3 -7 -1 -7 5 0 12 21 22 33 15 4 -2 7 -11 7
-20z m255 7 c-3 -5 -10 -10 -16 -10 -5 0 -9 5 -9 10 0 6 7 10 16 10 8 0 12 -4
9 -10z m1700 -20 c4 -12 1 -26 -7 -34 -12 -11 -14 -8 -14 20 0 38 11 45 21 14z
m-932 -18 c-3 -12 -9 -19 -14 -16 -5 3 -4 14 2 25 13 26 20 21 12 -9z m-1043
-2 c0 -17 -2 -19 -14 -8 -10 9 -11 15 -2 20 16 11 16 10 16 -12z m1650 6 c0
-2 -7 -7 -16 -10 -8 -3 -12 -2 -9 4 6 10 25 14 25 6z m-1450 -16 c0 -5 -2 -10
-4 -10 -3 0 -8 5 -11 10 -3 6 -1 10 4 10 6 0 11 -4 11 -10z m1380 0 c0 -5 -5
-10 -11 -10 -5 0 -7 5 -4 10 3 6 8 10 11 10 2 0 4 -4 4 -10z m130 -21 c0 -6
-4 -7 -10 -4 -5 3 -10 11 -10 16 0 6 5 7 10 4 6 -3 10 -11 10 -16z m42 -1 c-7
-7 -12 -8 -12 -2 0 14 12 26 19 19 2 -3 -1 -11 -7 -17z m-1898 -62 c-3 -14
-11 -26 -18 -26 -6 0 -4 -5 4 -10 13 -9 13 -12 -3 -21 -9 -6 -15 -14 -12 -20
4 -5 1 -9 -5 -9 -7 0 -9 -8 -5 -21 5 -15 4 -19 -4 -15 -21 14 -61 17 -61 5 0
-7 9 -9 21 -6 l21 6 -21 -23 c-12 -13 -30 -23 -39 -22 -9 0 -16 -5 -14 -12 1
-8 -2 -11 -7 -8 -11 7 -42 -34 -35 -46 3 -4 0 -8 -5 -8 -17 0 -13 26 5 41 9 8
28 31 43 53 14 21 34 50 44 65 10 15 24 25 34 23 15 -3 15 -2 2 14 -11 13 -11
18 -1 21 6 3 12 10 12 16 0 18 33 48 42 39 5 -5 6 -21 2 -36z m1491 25 c-3 -6
-11 -8 -17 -5 -6 4 -5 9 3 15 16 10 23 4 14 -10z m185 -15 c0 -3 -4 -8 -10
-11 -5 -3 -10 -1 -10 4 0 6 5 11 10 11 6 0 10 -2 10 -4z m-1445 -26 c-3 -5
-10 -10 -16 -10 -5 0 -9 5 -9 10 0 6 7 10 16 10 8 0 12 -4 9 -10z m-175 -13
c0 -14 -39 -41 -47 -33 -3 3 5 14 18 25 29 24 29 24 29 8z m1496 -24 c-2 -2
-16 -1 -32 3 -25 6 -26 8 -9 14 18 7 51 -7 41 -17z m624 1 c0 -8 -5 -12 -10
-9 -6 4 -8 11 -5 16 9 14 15 11 15 -7z m755 6 c3 -5 1 -10 -4 -10 -6 0 -11 5
-11 10 0 6 2 10 4 10 3 0 8 -4 11 -10z m-1087 -37 c-15 -18 -21 -9 -13 18 6
16 9 18 16 8 4 -8 3 -19 -3 -26z m-273 7 c-3 -5 -11 -10 -16 -10 -6 0 -7 5 -4
10 3 6 11 10 16 10 6 0 7 -4 4 -10z m-1520 -30 c3 -6 -1 -7 -9 -4 -18 7 -21
14 -7 14 6 0 13 -4 16 -10z m59 1 c3 -5 -1 -11 -9 -14 -9 -4 -12 -1 -8 9 6 16
10 17 17 5z m-317 -33 c-3 -8 -6 -5 -6 6 -1 11 2 17 5 13 3 -3 4 -12 1 -19z
m353 18 c0 -3 -4 -8 -10 -11 -5 -3 -10 -1 -10 4 0 6 5 11 10 11 6 0 10 -2 10
-4z m2716 -28 c-15 -8 -16 -12 -5 -19 11 -7 11 -9 -2 -9 -9 0 -19 9 -22 19 -3
14 -1 18 9 14 9 -3 14 2 14 13 0 14 2 16 13 5 10 -10 8 -14 -7 -23z m-3106 2
c0 -5 -5 -10 -11 -10 -5 0 -7 5 -4 10 3 6 8 10 11 10 2 0 4 -4 4 -10z m3047
-22 c-3 -8 -6 -5 -6 6 -1 11 2 17 5 13 3 -3 4 -12 1 -19z m353 -19 c0 -8 -7
-7 -47 7 -16 6 -16 7 2 14 20 7 45 -4 45 -21z m-3246 6 c-10 -8 -15 -15 -11
-15 9 0 -18 -30 -27 -30 -3 0 -6 4 -6 10 0 12 41 50 54 50 5 0 1 -7 -10 -15z
m2871 5 c3 -5 2 -10 -4 -10 -5 0 -13 5 -16 10 -3 6 -2 10 4 10 5 0 13 -4 16
-10z m-2814 -27 c-18 -26 -33 -30 -25 -8 4 10 0 15 -12 15 -15 0 -16 2 -5 9 7
5 24 8 36 7 21 -1 21 -2 6 -23z m2866 11 c-3 -3 -12 -4 -19 -1 -8 3 -5 6 6 6
11 1 17 -2 13 -5z m60 -10 c-3 -3 -12 -4 -19 -1 -8 3 -5 6 6 6 11 1 17 -2 13
-5z m136 -14 c-5 -19 -23 -29 -23 -12 0 7 20 32 26 32 1 0 0 -9 -3 -20z
m-3413 6 c0 -3 -4 -8 -10 -11 -5 -3 -10 -1 -10 4 0 6 5 11 10 11 6 0 10 -2 10
-4z m180 -16 c0 -5 -4 -10 -10 -10 -5 0 -10 5 -10 10 0 6 5 10 10 10 6 0 10
-4 10 -10z m296 -37 c-5 -6 -46 29 -46 39 0 4 11 -2 25 -14 14 -12 23 -23 21
-25z m2234 43 c0 -2 -7 -7 -16 -10 -8 -3 -12 -2 -9 4 6 10 25 14 25 6z m-2432
-22 c-16 -8 -28 -19 -28 -24 0 -21 -16 -9 -17 13 0 12 1 16 4 10 4 -10 10 -10
26 2 12 8 26 15 32 15 5 -1 -2 -8 -17 -16z m2559 10 c-3 -3 -12 -4 -19 -1 -8
3 -5 6 6 6 11 1 17 -2 13 -5z m-387 -26 c0 -6 -6 -5 -15 2 -8 7 -15 14 -15 16
0 2 7 1 15 -2 8 -4 15 -11 15 -16z m-2113 -16 c-10 -10 -14 -22 -10 -26 5 -4
3 -6 -3 -4 -6 2 -28 -12 -47 -29 -20 -18 -44 -33 -53 -33 -13 0 -14 -3 -5 -14
8 -10 9 -16 1 -21 -5 -3 -10 -3 -10 2 0 4 -3 18 -6 30 -5 18 -2 21 13 17 14
-4 35 10 74 48 30 29 56 52 58 51 2 -2 -3 -11 -12 -21z m233 -3 c0 -6 -4 -7
-10 -4 -5 3 -10 11 -10 16 0 6 5 7 10 4 6 -3 10 -11 10 -16z m-111 2 c11 -7
10 -13 -4 -35 -21 -32 -12 -45 16 -27 31 19 35 5 7 -28 l-25 -29 -13 38 c-11
32 -11 42 0 55 8 10 9 15 1 15 -6 0 -11 5 -11 10 0 12 10 13 29 1z m2960 -31
c4 0 6 -17 6 -38 0 -20 10 -56 23 -80 28 -55 28 -61 -2 -29 -13 14 -26 23 -29
20 -3 -3 -3 4 -1 14 3 11 -2 47 -10 80 -18 70 -19 88 -4 56 6 -13 14 -23 17
-23z m-2926 13 c-4 -11 -3 -14 5 -9 7 4 12 3 12 -3 0 -5 -9 -9 -20 -8 -11 1
-20 2 -20 3 0 11 14 34 21 34 4 0 5 -7 2 -17z m-63 -2 c0 -6 -4 -13 -10 -16
-5 -3 -10 1 -10 9 0 9 5 16 10 16 6 0 10 -4 10 -9z m2430 -21 c0 -10 -3 -21
-7 -23 -5 -3 -8 8 -8 23 0 15 3 26 8 23 4 -2 7 -13 7 -23z m421 -7 c9 -10 19
-25 23 -33 4 -8 -1 -4 -12 9 -10 13 -30 32 -43 43 -18 15 -19 17 -4 10 11 -6
27 -18 36 -29z m319 28 c0 -6 -4 -12 -8 -15 -5 -3 -9 1 -9 9 0 8 4 15 9 15 4
0 8 -4 8 -9z m-3323 -7 c-3 -3 -12 -4 -19 -1 -8 3 -5 6 6 6 11 1 17 -2 13 -5z
m65 -87 c-17 -17 -24 -18 -36 -8 -9 7 -22 11 -29 8 -8 -3 -14 1 -14 9 0 8 6
13 13 10 7 -3 15 0 18 7 2 7 5 5 5 -4 2 -37 50 -26 52 11 0 11 2 12 6 1 3 -7
-4 -22 -15 -34z m2158 -7 c0 -5 -4 -10 -10 -10 -5 0 -10 5 -10 10 0 6 5 10 10
10 6 0 10 -4 10 -10z m750 -48 c-6 -2 -18 4 -25 14 -24 31 -17 39 11 13 14
-13 20 -25 14 -27z m280 38 c0 -5 -4 -10 -10 -10 -5 0 -10 5 -10 10 0 6 5 10
10 10 6 0 10 -4 10 -10z m-2973 -42 c-3 -8 -6 -5 -6 6 -1 11 2 17 5 13 3 -3 4
-12 1 -19z m2973 11 c11 -8 12 -12 3 -15 -8 -4 -3 -14 15 -30 15 -14 20 -23
12 -20 -8 3 -23 9 -32 12 -10 4 -18 12 -18 19 0 8 -3 20 -6 29 -7 18 4 20 26
5z m-3105 -19 c-21 -24 -32 -25 -32 -6 0 8 6 12 13 9 6 -2 15 0 19 6 3 6 9 11
12 11 3 0 -2 -9 -12 -20z m298 -57 c-37 -74 -50 -93 -34 -50 19 50 57 117 66
117 1 0 -14 -30 -32 -67z m2247 46 c0 -6 -4 -7 -10 -4 -5 3 -10 11 -10 16 0 6
5 7 10 4 6 -3 10 -11 10 -16z m-2709 -12 c-10 -9 -11 -8 -5 6 3 10 9 15 12 12
3 -3 0 -11 -7 -18z m2699 -37 c-8 -6 -22 -10 -30 -10 -8 0 -4 6 10 13 27 15
44 12 20 -3z m30 -165 c0 -14 -2 -25 -4 -25 -2 0 -6 11 -8 25 -3 14 -1 25 3
25 5 0 9 -11 9 -25z m-2476 -30 c3 -8 1 -15 -3 -15 -5 0 -11 7 -15 15 -3 8 -1
15 3 15 5 0 11 -7 15 -15z m451 5 c3 -5 -1 -10 -10 -10 -9 0 -13 5 -10 10 3 6
8 10 10 10 2 0 7 -4 10 -10z m2625 -5 c0 -8 -4 -15 -10 -15 -5 0 -10 7 -10 15
0 8 5 15 10 15 6 0 10 -7 10 -15z m-3096 -40 c-4 -8 -8 -15 -10 -15 -2 0 -4 7
-4 15 0 8 4 15 10 15 5 0 7 -7 4 -15z m525 -12 c20 4 30 3 26 -3 -3 -6 -1 -10
4 -10 6 0 11 -8 11 -17 -1 -17 -2 -17 -15 1 -7 10 -17 16 -22 13 -13 -8 -53
11 -53 25 0 10 3 9 9 -1 6 -10 19 -12 40 -8z m-59 -18 c0 -4 -7 -20 -16 -36
-10 -21 -20 -29 -31 -25 -9 4 -22 1 -29 -5 -11 -9 -14 -8 -14 5 0 14 11 20 31
18 4 -1 15 9 25 21 14 16 15 18 2 9 -10 -8 -19 -9 -22 -3 -3 5 0 12 6 14 18 7
48 8 48 2z m-100 -59 c0 -11 -19 -15 -25 -6 -3 5 1 10 9 10 9 0 16 -2 16 -4z
m-145 -46 c3 -6 -1 -7 -9 -4 -18 7 -21 14 -7 14 6 0 13 -4 16 -10z m570 0 c-3
-5 -12 -10 -18 -10 -7 0 -6 4 3 10 19 12 23 12 15 0z m765 -40 c0 -5 -5 -10
-11 -10 -5 0 -7 5 -4 10 3 6 8 10 11 10 2 0 4 -4 4 -10z m-1450 -4 c0 -2 -9
-6 -20 -9 -11 -3 -18 -1 -14 4 5 9 34 13 34 5z m210 -151 c0 -2 -9 -9 -20 -15
-12 -6 -20 -7 -20 -1 0 5 8 12 18 14 9 3 18 5 20 6 1 0 2 -1 2 -4z m-40 -69
c0 -3 -4 -8 -10 -11 -5 -3 -10 -1 -10 4 0 6 5 11 10 11 6 0 10 -2 10 -4z m69
-89 c8 -11 6 -13 -9 -12 -11 1 -23 5 -27 10 -5 4 -2 5 5 1 6 -4 12 -2 12 3 0
15 5 14 19 -2z m1 -81 c0 -3 -4 -8 -10 -11 -5 -3 -10 -1 -10 4 0 6 5 11 10 11
6 0 10 -2 10 -4z m3224 -30 c-3 -9 -10 -13 -15 -10 -5 3 -3 11 4 19 15 16 19
13 11 -9z m-3354 -36 c0 -5 -4 -10 -10 -10 -5 0 -10 5 -10 10 0 6 5 10 10 10
6 0 10 -4 10 -10z m82 -22 c-7 -7 -12 -8 -12 -2 0 6 3 14 7 17 3 4 9 5 12 2 2
-3 -1 -11 -7 -17z m1221 -35 c-7 -2 -19 -2 -25 0 -7 3 -2 5 12 5 14 0 19 -2
13 -5z m2062 -63 c3 -5 1 -10 -4 -10 -6 0 -11 5 -11 10 0 6 2 10 4 10 3 0 8
-4 11 -10z m-3237 -251 c-26 -15 -23 -32 3 -19 11 7 23 9 26 7 7 -8 -36 -29
-47 -22 -17 11 -7 45 15 45 18 -1 19 -1 3 -11z m62 -119 c0 -11 -4 -20 -8 -20
-4 0 -8 9 -9 20 -1 11 2 20 8 20 5 0 9 -9 9 -20z m-90 -107 c-8 -4 -20 -13
-27 -22 -6 -9 -14 -13 -18 -9 -11 11 18 37 40 37 14 0 16 -2 5 -6z m3162 -15
c-7 -7 -12 -8 -12 -2 0 14 12 26 19 19 2 -3 -1 -11 -7 -17z m-3672 -203 c4 3
11 -2 14 -11 3 -9 2 -12 -5 -9 -5 4 -16 2 -24 -5 -9 -7 -15 -8 -20 0 -3 5 1
10 9 10 8 0 14 6 12 13 -1 6 -1 9 1 4 3 -4 8 -5 13 -2z m-58 -55 c-11 -10 -19
-20 -16 -22 2 -3 -2 -11 -10 -17 -8 -7 -12 -19 -9 -27 3 -8 0 -14 -7 -14 -8 0
-10 8 -4 28 4 15 8 36 8 47 1 15 8 20 30 21 l30 1 -22 -17z m118 0 c0 -5 -5
-10 -11 -10 -5 0 -7 5 -4 10 3 6 8 10 11 10 2 0 4 -4 4 -10z m-160 -10 c0 -5
-4 -10 -10 -10 -5 0 -10 5 -10 10 0 6 5 10 10 10 6 0 10 -4 10 -10z m-650
-120 c0 -5 -4 -10 -9 -10 -6 0 -13 5 -16 10 -3 6 1 10 9 10 9 0 16 -4 16 -10z
m-150 -42 c0 -4 -9 -8 -20 -8 -11 0 -20 4 -20 9 0 6 9 9 20 8 11 -1 20 -5 20
-9z m40 2 c0 -5 -4 -10 -10 -10 -5 0 -10 5 -10 10 0 6 5 10 10 10 6 0 10 -4
10 -10z m184 -186 c3 -8 2 -12 -4 -9 -6 3 -13 -1 -16 -9 -3 -9 -15 -16 -27
-16 -19 0 -19 1 4 24 29 29 35 30 43 10z m74 -12 c-2 -20 3 -25 12 -12 9 13
10 13 10 0 0 -8 -11 -20 -25 -27 -14 -6 -23 -8 -21 -4 3 4 0 13 -5 21 -8 12
-12 12 -16 2 -2 -6 -9 -9 -14 -6 -14 8 30 44 46 37 8 -3 14 -8 13 -11z m4356
-27 c-4 -8 -8 -15 -10 -15 -2 0 -4 7 -4 15 0 8 4 15 10 15 5 0 7 -7 4 -15z
m-4124 -14 c0 -5 9 -11 20 -14 21 -5 28 -37 9 -37 -7 0 -9 -10 -5 -25 4 -15 2
-25 -4 -25 -6 0 -8 5 -5 10 3 6 2 10 -4 10 -6 0 -8 6 -5 14 3 8 1 17 -5 20 -6
4 -8 13 -5 20 3 8 1 17 -5 21 -6 3 -11 -1 -11 -9 0 -9 -7 -16 -15 -16 -8 0
-15 5 -15 11 0 5 4 8 9 5 5 -3 11 1 15 9 6 16 26 21 26 6z m-310 -10 c0 -6 -4
-13 -10 -16 -5 -3 -10 1 -10 9 0 9 5 16 10 16 6 0 10 -4 10 -9z m395 -33 c6
-4 2 -8 -7 -8 -10 0 -18 7 -18 17 0 9 3 12 8 7 4 -5 12 -12 17 -16z m104 -6
c0 -9 -3 -12 -5 -6 -2 6 -19 9 -37 7 l-32 -4 30 14 c34 16 45 13 44 -11z
m-299 -90 c0 -15 -2 -15 -10 -2 -13 20 -13 33 0 25 6 -3 10 -14 10 -23z m-640
-6 c0 -18 -16 -29 -30 -21 -6 4 -5 11 3 20 16 18 27 19 27 1z m710 -70 c0 -11
-19 -15 -25 -6 -3 5 1 10 9 10 9 0 16 -2 16 -4z m-450 -340 c0 -3 -4 -8 -10
-11 -5 -3 -10 -1 -10 4 0 6 5 11 10 11 6 0 10 -2 10 -4z m11 -49 c-8 -8 -11
-7 -11 4 0 20 13 34 18 19 3 -7 -1 -17 -7 -23z"/>
<path d="M5795 6649 c-12 -19 3 -22 27 -5 l22 16 -21 0 c-12 0 -25 -5 -28 -11z"/>
<path d="M3916 6192 c-2 -4 -1 -14 3 -21 6 -10 10 -9 14 3 6 16 -8 32 -17 18z"/>
<path d="M3507 3483 c-4 -3 -7 -11 -7 -17 0 -6 5 -5 12 2 6 6 9 14 7 17 -3 3
-9 2 -12 -2z"/>
<path d="M5600 7710 c-13 -8 -12 -10 3 -10 9 0 17 5 17 10 0 12 -1 12 -20 0z"/>
<path d="M5650 7703 c0 -13 29 -38 35 -31 3 3 -4 13 -15 23 -11 10 -20 13 -20
8z"/>
<path d="M4970 7681 c0 -5 5 -13 10 -16 6 -3 10 -2 10 4 0 5 -4 13 -10 16 -5
3 -10 2 -10 -4z"/>
<path d="M5735 7670 c3 -5 8 -10 11 -10 2 0 4 5 4 10 0 6 -5 10 -11 10 -5 0
-7 -4 -4 -10z"/>
<path d="M4443 7656 c-26 -12 -29 -22 -10 -29 7 -2 18 6 24 19 6 13 10 23 10
23 -1 -1 -12 -6 -24 -13z"/>
<path d="M5641 7661 c-8 -5 -11 -16 -7 -26 8 -21 19 -13 21 15 1 11 1 20 1 20
-1 0 -7 -4 -15 -9z"/>
<path d="M3716 7645 c4 -8 10 -12 15 -9 14 8 10 24 -6 24 -9 0 -12 -6 -9 -15z"/>
<path d="M3766 7644 c-10 -25 1 -29 14 -5 6 12 7 21 1 21 -5 0 -12 -7 -15 -16z"/>
<path d="M5676 7651 c-3 -5 1 -11 9 -15 8 -3 15 -1 15 4 0 13 -18 22 -24 11z"/>
<path d="M4915 7634 c-18 -14 -18 -15 13 -12 33 2 42 12 19 21 -7 3 -22 -2
-32 -9z"/>
<path d="M4530 7610 c-13 -8 -12 -10 3 -10 9 0 17 5 17 10 0 12 -1 12 -20 0z"/>
<path d="M4100 7596 c0 -8 -8 -17 -17 -19 -17 -4 -17 -5 -1 -6 10 0 22 8 28
19 7 14 7 20 0 20 -5 0 -10 -6 -10 -14z"/>
<path d="M3670 7581 c0 -5 -8 -11 -17 -13 -12 -2 -14 -6 -7 -10 6 -4 19 1 29
12 10 12 13 20 7 20 -7 0 -12 -4 -12 -9z"/>
<path d="M5693 7565 c0 -8 4 -12 9 -9 5 3 6 10 3 15 -9 13 -12 11 -12 -6z"/>
<path d="M3987 7538 c-26 -9 -143 -118 -126 -118 4 0 11 5 14 10 3 6 19 10 35
10 16 0 32 5 35 10 3 6 -1 10 -9 10 -30 0 -16 19 16 22 17 2 33 9 36 17 3 10
-2 11 -18 6 -15 -5 -20 -4 -16 4 4 6 15 11 24 11 19 0 49 17 42 23 -3 2 -17 0
-33 -5z"/>
<path d="M6600 7531 c0 -5 5 -13 10 -16 6 -3 10 -2 10 4 0 5 -4 13 -10 16 -5
3 -10 2 -10 -4z"/>
<path d="M3680 7470 c0 -5 5 -10 10 -10 6 0 10 5 10 10 0 6 -4 10 -10 10 -5 0
-10 -4 -10 -10z"/>
<path d="M3796 7455 c-9 -9 -16 -18 -16 -20 0 -8 50 11 51 20 1 17 -18 17 -35
0z"/>
<path d="M5665 7460 c3 -5 8 -10 11 -10 2 0 4 5 4 10 0 6 -5 10 -11 10 -5 0
-7 -4 -4 -10z"/>
<path d="M5642 7440 c14 -22 24 -19 15 5 -4 8 -11 15 -17 15 -6 0 -6 -7 2 -20z"/>
<path d="M5690 7439 c0 -11 5 -17 10 -14 6 3 10 13 10 21 0 8 -4 14 -10 14 -5
0 -10 -9 -10 -21z"/>
<path d="M3742 7418 c-18 -18 -15 -28 9 -28 17 0 19 3 10 13 -6 8 -8 17 -4 20
3 4 4 7 2 7 -3 0 -10 -5 -17 -12z"/>
<path d="M6100 7401 c0 -5 7 -11 15 -15 8 -3 15 -1 15 3 0 5 -7 11 -15 15 -8
3 -15 1 -15 -3z"/>
<path d="M5637 7393 c-13 -13 -7 -32 14 -44 29 -15 43 1 23 29 -16 23 -26 27
-37 15z"/>
<path d="M6170 7385 c0 -14 67 -41 77 -32 6 6 -44 40 -64 43 -7 1 -13 -4 -13
-11z"/>
<path d="M5860 7337 c0 -9 -8 -17 -17 -17 -15 0 -16 -2 -3 -10 24 -15 37 -12
35 10 -2 25 -15 39 -15 17z"/>
<path d="M3480 7325 c-7 -8 -8 -15 -2 -15 5 0 15 7 22 15 7 8 8 15 2 15 -5 0
-15 -7 -22 -15z"/>
<path d="M5680 7325 c-10 -12 -10 -15 4 -15 9 0 16 7 16 15 0 8 -2 15 -4 15
-2 0 -9 -7 -16 -15z"/>
<path d="M5960 7299 c0 -6 -6 -9 -12 -8 -37 4 -46 -2 -44 -31 1 -16 9 -37 18
-46 15 -15 19 -15 34 -3 16 13 16 12 3 -8 -16 -27 -22 -28 -39 -8 -7 8 -17 15
-23 15 -5 0 2 -11 18 -25 26 -25 28 -25 41 -8 14 18 15 17 17 -27 2 -19 8 -26
29 -28 15 -2 37 2 49 8 l21 12 -27 18 -27 17 27 7 c14 4 29 5 33 2 4 -3 9 4 9
15 1 15 -3 18 -22 13 -12 -3 -26 -1 -29 5 -4 7 1 11 14 11 35 0 21 35 -15 37
-17 1 -24 0 -17 -3 6 -3 12 -11 12 -17 -1 -7 -9 -2 -19 10 -10 12 -22 19 -27
15 -5 -4 -3 0 4 9 10 14 9 17 -8 22 -11 3 -20 1 -20 -4z m-5 -39 c3 -6 -1 -7
-9 -4 -18 7 -21 14 -7 14 6 0 13 -4 16 -10z"/>
<path d="M5660 7280 c20 -13 33 -13 25 0 -3 6 -14 10 -23 10 -15 0 -15 -2 -2
-10z"/>
<path d="M5710 7266 c0 -2 7 -6 15 -10 8 -3 15 -1 15 4 0 6 -7 10 -15 10 -8 0
-15 -2 -15 -4z"/>
<path d="M6290 7260 c0 -5 5 -10 10 -10 6 0 10 -8 8 -17 -2 -10 10 -24 30 -36
36 -21 53 -16 36 10 -14 22 -84 66 -84 53z"/>
<path d="M6240 7215 c0 -18 24 -30 40 -20 8 5 8 11 -1 21 -15 19 -39 18 -39
-1z"/>
<path d="M5690 7210 c-9 -6 -10 -10 -3 -10 6 0 15 5 18 10 8 12 4 12 -15 0z"/>
<path d="M5771 7164 c0 -11 3 -14 6 -6 3 7 2 16 -1 19 -3 4 -6 -2 -5 -13z"/>
<path d="M6395 7171 c-2 -5 7 -13 22 -20 27 -12 39 -9 29 7 -8 13 -45 22 -51
13z"/>
<path d="M5955 7110 c-4 -6 -13 -9 -20 -8 -8 2 -13 -1 -12 -7 1 -5 5 -9 10 -7
4 1 7 -2 7 -6 0 -4 9 -8 19 -8 15 0 17 3 9 13 -13 16 -4 17 22 3 16 -9 18 -8
14 5 -4 9 -9 13 -12 11 -3 -3 -11 -1 -18 5 -8 7 -14 7 -19 -1z"/>
<path d="M3535 7090 c-3 -5 -1 -10 4 -10 6 0 11 5 11 10 0 6 -2 10 -4 10 -3 0
-8 -4 -11 -10z"/>
<path d="M6023 7081 c0 -11 6 -17 14 -14 18 7 17 33 -1 33 -8 0 -14 -8 -13
-19z"/>
<path d="M3487 7075 c-9 -8 -20 -15 -25 -15 -21 0 -32 -26 -18 -45 12 -17 15
-17 50 10 40 30 43 37 22 54 -11 9 -17 8 -29 -4z"/>
<path d="M2962 7030 c-12 -16 -22 -32 -22 -37 0 -4 6 1 13 12 8 10 18 15 23
12 6 -3 11 5 12 19 2 31 0 30 -26 -6z"/>
<path d="M3000 7050 c0 -5 5 -10 10 -10 6 0 10 5 10 10 0 6 -4 10 -10 10 -5 0
-10 -4 -10 -10z"/>
<path d="M5973 7030 c1 -14 4 -16 14 -8 16 13 16 15 -1 21 -10 4 -14 0 -13
-13z"/>
<path d="M6215 6989 c-10 -15 3 -25 16 -12 7 7 7 13 1 17 -6 3 -14 1 -17 -5z"/>
<path d="M6384 6983 c2 -10 6 -17 10 -16 15 3 16 11 2 22 -12 10 -14 9 -12 -6z"/>
<path d="M6580 6963 c0 -9 10 -27 22 -40 12 -13 18 -26 14 -30 -4 -4 -12 0
-17 10 -6 9 -15 17 -21 17 -6 0 -3 -9 6 -19 10 -11 17 -28 16 -38 -4 -30 0
-39 9 -24 7 10 17 5 47 -23 30 -28 34 -36 19 -34 -11 2 -23 8 -27 13 -4 6 -8
0 -8 -13 0 -19 -3 -21 -19 -12 -30 16 -61 13 -55 -5 5 -12 9 -13 20 -4 8 7 18
8 22 4 4 -4 1 -10 -5 -12 -17 -6 -16 -23 2 -43 14 -16 14 -17 -10 -13 -14 3
-25 12 -25 20 0 9 -6 13 -15 9 -8 -3 -15 -1 -15 5 0 6 -5 7 -10 4 -6 -4 -17
-1 -25 5 -18 15 -55 3 -55 -17 0 -9 3 -13 7 -9 4 3 12 -8 18 -26 6 -18 17 -32
24 -30 7 1 10 -2 7 -6 -3 -5 3 -17 14 -27 11 -10 20 -14 20 -10 0 5 10 -1 21
-14 15 -15 28 -21 43 -17 11 3 27 6 34 6 6 0 12 9 12 20 0 11 5 20 11 20 5 0
8 -4 4 -9 -3 -5 -1 -12 5 -16 5 -3 10 -15 10 -26 0 -11 7 -19 16 -19 13 0 14
-3 5 -13 -6 -8 -7 -18 -3 -23 4 -5 -3 0 -16 10 -12 11 -25 16 -29 13 -3 -4 -1
-7 6 -7 8 0 11 -8 8 -20 -3 -12 -1 -17 5 -14 5 3 4 -3 -3 -15 -8 -11 -16 -17
-19 -13 -3 4 -14 7 -25 6 -37 -1 -47 16 -22 37 24 20 17 25 -14 9 -13 -8 -19
-7 -19 0 0 6 10 15 23 20 21 8 10 15 -19 11 -7 -1 -14 5 -17 14 -4 9 -18 14
-41 13 -31 -1 -34 -3 -25 -20 9 -16 22 -22 42 -19 4 1 10 -12 13 -29 4 -17 13
-30 21 -30 16 0 43 -24 43 -38 0 -16 47 -42 75 -42 24 0 25 1 11 16 -25 24
-19 30 7 6 14 -13 32 -20 49 -18 15 2 25 -1 22 -5 -3 -5 2 -9 10 -9 8 0 18 5
21 10 4 6 11 8 16 4 5 -3 7 -9 4 -14 -3 -5 -1 -11 5 -15 6 -3 10 3 10 15 0 15
5 20 14 17 10 -4 13 -1 9 9 -3 7 0 14 6 14 18 0 12 22 -8 27 -10 2 -25 17 -32
31 -8 15 -17 29 -20 32 -4 3 -9 14 -11 24 -4 26 19 32 27 7 3 -12 11 -21 16
-21 5 0 9 -5 9 -11 0 -5 -4 -7 -10 -4 -5 3 -10 3 -10 -2 1 -14 24 -39 55 -59
l30 -19 -23 33 c-13 17 -19 32 -13 32 5 0 18 -13 28 -30 9 -16 20 -30 24 -30
3 0 19 -18 33 -39 33 -47 56 -58 73 -36 14 20 7 45 -13 45 -8 0 -14 10 -14 23
0 13 -5 28 -11 34 -8 8 -7 15 4 24 13 12 11 17 -10 37 -13 12 -21 27 -18 32 3
6 0 10 -8 10 -8 0 -20 7 -27 15 -7 9 -15 14 -17 11 -7 -7 -74 42 -90 64 -14
20 -53 28 -53 10 0 -5 9 -14 20 -20 24 -13 29 -66 5 -56 -9 3 -15 0 -15 -9 0
-19 -2 -19 -44 6 -20 12 -36 16 -36 10 0 -6 6 -11 14 -11 15 0 30 -27 27 -48
-1 -7 8 -26 19 -42 12 -17 16 -30 10 -30 -8 0 -8 -6 1 -21 9 -17 8 -20 -3 -17
-7 2 -17 19 -23 36 -5 18 -15 32 -21 32 -7 0 -16 5 -20 12 -5 8 -2 9 9 5 24
-9 21 14 -7 55 -23 34 -21 69 3 54 8 -5 8 0 2 16 -11 32 -3 53 15 37 8 -6 14
-8 14 -5 0 11 -30 66 -36 66 -3 0 -3 -4 0 -9 7 -11 -22 -23 -35 -15 -15 9 -10
22 9 20 12 -1 18 7 20 27 2 15 10 27 17 27 21 0 27 -17 8 -24 -15 -6 -13 -10
11 -31 15 -13 25 -28 22 -34 -8 -13 7 -22 22 -12 14 9 4 51 -11 45 -8 -3 -12
9 -12 31 0 19 3 35 8 35 4 0 7 -7 7 -16 0 -8 5 -12 10 -9 6 3 10 10 10 15 0 9
-39 25 -52 22 -5 -1 -8 6 -8 16 0 11 -8 17 -24 17 -18 0 -22 -3 -14 -12 7 -9
7 -13 0 -13 -6 0 -14 5 -17 11 -4 6 -14 8 -22 5 -8 -3 -21 0 -29 8 -18 19 -18
24 3 22 10 0 19 7 21 18 2 11 0 16 -6 12 -6 -3 -14 4 -17 16 -14 45 -55 76
-55 41z m45 -361 c-6 -6 -85 80 -85 92 0 5 20 -13 45 -39 25 -27 43 -51 40
-53z m242 3 c3 -9 2 -19 -2 -23 -4 -4 -10 -1 -12 6 -3 6 -9 10 -14 7 -5 -4 -6
1 -3 9 8 20 23 20 31 1z m67 -21 c3 -8 2 -12 -4 -9 -6 3 -10 10 -10 16 0 14 7
11 14 -7z m-133 -81 c13 -16 12 -17 -3 -4 -10 7 -18 15 -18 17 0 8 8 3 21 -13z
m159 2 c0 -8 -2 -15 -4 -15 -2 0 -6 7 -10 15 -3 8 -1 15 4 15 6 0 10 -7 10
-15z m29 -57 c0 -16 -2 -18 -6 -8 -3 8 -11 18 -17 22 -7 5 -4 8 7 8 11 0 17
-7 16 -22z"/>
<path d="M6400 6955 c-12 -14 -8 -30 8 -30 4 -1 17 -6 28 -13 37 -20 45 2 14
36 -25 26 -33 27 -50 7z"/>
<path d="M6130 6920 c-13 -8 -13 -11 3 -27 9 -9 17 -12 17 -6 0 6 3 18 6 27 7
18 -4 20 -26 6z"/>
<path d="M3175 6900 c-15 -10 -32 -26 -37 -34 -7 -13 -4 -14 22 -5 27 10 58
45 48 54 -2 2 -17 -4 -33 -15z"/>
<path d="M6170 6889 c0 -5 4 -8 9 -5 9 6 34 -17 27 -25 -2 -2 5 -13 15 -23 19
-19 19 -19 19 0 0 10 -11 29 -24 42 -25 23 -46 29 -46 11z"/>
<path d="M3960 6879 c0 -5 5 -7 10 -4 6 3 10 8 10 11 0 2 -4 4 -10 4 -5 0 -10
-5 -10 -11z"/>
<path d="M6970 6870 c0 -11 1 -11 39 -15 23 -2 24 -2 6 11 -22 16 -45 18 -45
4z"/>
<path d="M6547 6838 c-7 -25 7 -38 41 -38 22 0 22 0 -5 30 -14 17 -27 30 -28
30 -2 0 -5 -10 -8 -22z"/>
<path d="M6270 6826 c0 -8 4 -17 9 -20 10 -7 23 19 14 28 -11 11 -23 6 -23 -8z"/>
<path d="M6530 6790 c0 -5 5 -10 11 -10 5 0 7 5 4 10 -3 6 -8 10 -11 10 -2 0
-4 -4 -4 -10z"/>
<path d="M6814 6769 c-3 -6 -2 -15 3 -20 5 -5 9 -1 9 11 0 23 -2 24 -12 9z"/>
<path d="M6367 6727 c-5 -14 38 -16 50 -2 5 4 2 5 -4 1 -7 -4 -13 -2 -13 3 0
15 -27 14 -33 -2z"/>
<path d="M7230 6680 c0 -34 13 -61 26 -56 8 3 14 1 14 -4 0 -6 5 -10 11 -10 5
0 7 5 4 10 -3 6 -1 10 6 10 8 0 8 4 -1 15 -11 13 -15 13 -21 3 -8 -12 -10 -11
-13 12 0 5 -7 15 -13 22 -10 10 -13 9 -13 -2z"/>
<path d="M6753 6665 c-18 -19 -16 -28 7 -48 24 -20 26 -11 3 15 -18 20 -4 25
15 6 20 -20 24 -2 5 20 -15 18 -20 19 -30 7z"/>
<path d="M3283 6640 c-19 -29 -17 -48 3 -28 9 8 14 23 12 32 -3 14 -5 14 -15
-4z"/>
<path d="M7380 6607 c0 -8 7 -17 15 -21 8 -3 15 -2 15 3 0 5 -7 14 -15 21 -12
10 -15 10 -15 -3z"/>
<path d="M2820 6557 c0 -21 12 -28 27 -16 19 16 16 29 -7 29 -11 0 -20 -6 -20
-13z"/>
<path d="M6518 6523 c7 -3 16 -2 19 1 4 3 -2 6 -13 5 -11 0 -14 -3 -6 -6z"/>
<path d="M3080 6509 c0 -6 -9 -8 -22 -3 -22 7 -22 6 -5 -20 10 -14 13 -26 8
-26 -5 0 -12 7 -15 16 -6 15 -8 15 -26 -1 -10 -9 -16 -23 -13 -31 3 -8 0 -14
-6 -14 -6 0 -11 8 -11 18 -1 11 -6 7 -16 -13 -9 -16 -29 -41 -44 -55 -35 -30
-49 -75 -26 -83 18 -7 49 20 40 34 -3 5 -2 8 3 7 17 -5 83 47 78 61 -3 8 0 11
9 8 8 -3 17 -1 19 6 2 7 3 2 1 -10 -3 -14 1 -21 11 -19 19 3 28 13 54 58 15
28 16 36 6 31 -8 -3 -15 0 -15 6 0 6 -6 8 -14 5 -11 -4 -13 0 -9 15 3 12 3 21
-1 21 -3 0 -6 -5 -6 -11z m10 -89 c0 -5 -5 -10 -11 -10 -5 0 -7 5 -4 10 3 6 8
10 11 10 2 0 4 -4 4 -10z"/>
<path d="M7024 6479 c-9 -15 5 -44 35 -73 27 -26 29 -26 34 -7 10 41 -49 111
-69 80z"/>
<path d="M6540 6476 c0 -3 7 -12 16 -20 23 -23 40 -19 19 4 -16 18 -35 26 -35
16z"/>
<path d="M7110 6472 c0 -12 19 -26 26 -19 2 2 -2 10 -11 17 -9 8 -15 8 -15 2z"/>
<path d="M6550 6430 c0 -5 5 -10 11 -10 5 0 7 5 4 10 -3 6 -8 10 -11 10 -2 0
-4 -4 -4 -10z"/>
<path d="M6716 6398 c5 -8 2 -9 -10 -5 -14 5 -17 3 -12 -8 3 -8 1 -15 -4 -15
-19 0 -10 -21 15 -32 14 -6 25 -17 25 -25 0 -7 7 -13 17 -13 14 0 15 2 1 18
-19 21 -32 72 -19 72 5 0 13 -4 16 -10 3 -5 11 -10 16 -10 14 0 -11 24 -34 33
-12 5 -16 3 -11 -5z"/>
<path d="M6215 6391 c-3 -6 -5 -11 -3 -12 27 -6 38 -5 35 4 -5 15 -24 20 -32
8z"/>
<path d="M3687 6371 c-4 -17 -3 -21 5 -13 5 5 8 16 6 23 -3 8 -7 3 -11 -10z"/>
<path d="M6860 6380 c0 -6 7 -10 15 -10 8 0 15 2 15 4 0 2 -7 6 -15 10 -8 3
-15 1 -15 -4z"/>
<path d="M3570 6361 c-7 -15 -7 -22 2 -27 7 -4 10 -4 6 1 -4 4 -3 16 3 26 5
11 7 19 5 19 -3 0 -10 -9 -16 -19z"/>
<path d="M7180 6371 c0 -16 41 -61 56 -61 21 0 17 13 -14 43 -29 28 -42 33
-42 18z"/>
<path d="M3003 6341 c-35 -29 -46 -68 -17 -57 9 3 18 6 20 6 2 0 4 7 4 15 0 8
4 15 9 15 8 0 24 41 18 46 -1 1 -17 -10 -34 -25z"/>
<path d="M3809 6357 c7 -7 14 -8 21 -1 6 6 2 10 -12 11 -16 2 -18 -1 -9 -10z"/>
<path d="M6925 6349 c-4 -6 -5 -12 -2 -15 2 -3 7 2 10 11 7 17 1 20 -8 4z"/>
<path d="M2490 6331 c-7 -15 -7 -21 0 -21 12 0 25 28 17 36 -3 3 -10 -4 -17
-15z"/>
<path d="M3527 6331 c3 -12 11 -17 19 -14 8 3 14 6 12 7 -2 1 -11 7 -20 14
-14 11 -16 10 -11 -7z"/>
<path d="M3695 6340 c-3 -5 -2 -10 4 -10 5 0 13 5 16 10 3 6 2 10 -4 10 -5 0
-13 -4 -16 -10z"/>
<path d="M6200 6339 c0 -5 5 -7 10 -4 6 3 10 8 10 11 0 2 -4 4 -10 4 -5 0 -10
-5 -10 -11z"/>
<path d="M3790 6329 c0 -5 5 -7 10 -4 6 3 10 8 10 11 0 2 -4 4 -10 4 -5 0 -10
-5 -10 -11z"/>
<path d="M3049 6313 c-13 -16 -12 -17 4 -4 9 7 17 15 17 17 0 8 -8 3 -21 -13z"/>
<path d="M3720 6320 c0 -5 5 -10 11 -10 5 0 7 5 4 10 -3 6 -8 10 -11 10 -2 0
-4 -4 -4 -10z"/>
<path d="M3329 6284 c-5 -15 -12 -31 -16 -37 -3 -6 -1 -7 5 -3 20 12 13 -9 -8
-24 -22 -16 -28 -60 -7 -56 24 4 57 27 57 41 0 7 6 16 13 18 8 4 8 6 0 6 -7 1
-9 15 -6 41 5 33 3 40 -11 40 -9 0 -21 -12 -27 -26z"/>
<path d="M3540 6300 c-9 -6 -10 -10 -3 -10 6 0 15 5 18 10 8 12 4 12 -15 0z"/>
<path d="M3655 6299 c-4 -6 -5 -12 -2 -15 2 -3 7 2 10 11 7 17 1 20 -8 4z"/>
<path d="M3690 6288 c-10 -21 -10 -21 3 -6 8 10 18 14 22 10 5 -4 5 -1 1 6
-10 17 -14 15 -26 -10z"/>
<path d="M2943 6273 c-11 -31 -8 -73 7 -73 8 0 40 34 40 43 0 4 -6 7 -14 7 -9
0 -16 12 -18 28 l-3 27 -12 -32z"/>
<path d="M6685 6290 c-3 -5 -2 -10 4 -10 5 0 13 5 16 10 3 6 2 10 -4 10 -5 0
-13 -4 -16 -10z"/>
<path d="M7060 6281 c0 -5 5 -13 10 -16 6 -3 10 -2 10 4 0 5 -4 13 -10 16 -5
3 -10 2 -10 -4z"/>
<path d="M6812 6259 c2 -7 14 -16 27 -20 18 -7 22 -6 19 9 -2 9 -14 19 -27 20
-15 3 -22 -1 -19 -9z"/>
<path d="M3617 6253 c-4 -3 2 -13 14 -21 24 -17 37 -9 19 13 -14 16 -23 19
-33 8z"/>
<path d="M3020 6225 c-8 -9 -8 -15 -2 -15 12 0 26 19 19 26 -2 2 -10 -2 -17
-11z"/>
<path d="M3277 6234 c-4 -4 -7 -17 -7 -28 1 -19 1 -20 11 -3 11 19 8 43 -4 31z"/>
<path d="M6709 6220 c-15 -13 -18 -18 -7 -14 10 3 20 -2 28 -15 13 -25 26 -27
34 -5 6 17 -9 54 -23 54 -5 0 -19 -9 -32 -20z"/>
<path d="M7074 6218 c9 -13 21 -35 27 -49 10 -27 89 -98 89 -81 0 15 -58 90
-79 101 -11 6 -23 20 -26 31 -3 11 -11 20 -17 20 -6 0 -3 -10 6 -22z"/>
<path d="M6515 6220 c-3 -5 -1 -10 4 -10 6 0 11 5 11 10 0 6 -2 10 -4 10 -3 0
-8 -4 -11 -10z"/>
<path d="M6300 6206 c0 -9 7 -16 16 -16 9 0 14 5 12 12 -6 18 -28 21 -28 4z"/>
<path d="M2680 6185 c-7 -8 -16 -13 -20 -10 -7 5 -35 -44 -42 -74 -2 -7 -13
-24 -26 -38 -25 -25 -25 -46 0 -51 17 -3 86 84 93 115 2 10 6 30 10 46 8 30 3
34 -15 12z"/>
<path d="M2979 6187 c-8 -7 -20 -12 -26 -10 -7 3 -14 -6 -17 -19 -5 -27 -6
-68 -2 -68 2 0 17 23 35 51 32 51 36 73 10 46z"/>
<path d="M7410 6191 c0 -10 19 -25 25 -20 1 2 -3 10 -11 17 -8 7 -14 8 -14 3z"/>
<path d="M3220 6165 c0 -16 27 -32 37 -21 7 7 -16 36 -28 36 -5 0 -9 -7 -9
-15z"/>
<path d="M3390 6160 c0 -5 5 -10 11 -10 5 0 7 5 4 10 -3 6 -8 10 -11 10 -2 0
-4 -4 -4 -10z"/>
<path d="M7440 6131 c0 -5 5 -13 10 -16 6 -3 10 -2 10 4 0 5 -4 13 -10 16 -5
3 -10 2 -10 -4z"/>
<path d="M7074 6119 c14 -9 15 -13 6 -19 -8 -5 -10 -15 -6 -26 6 -15 9 -16 15
-5 5 7 14 10 20 7 6 -4 11 -3 11 2 0 11 -44 52 -56 52 -5 0 -1 -5 10 -11z"/>
<path d="M3251 6104 c0 -11 3 -14 6 -6 3 7 2 16 -1 19 -3 4 -6 -2 -5 -13z"/>
<path d="M7751 6093 c5 -16 12 -34 15 -42 2 -8 7 -11 10 -9 6 6 -22 78 -30 78
-3 0 -1 -12 5 -27z"/>
<path d="M3185 6096 c-3 -9 -7 -23 -10 -31 -2 -8 0 -15 5 -15 11 0 25 48 16
57 -3 3 -8 -2 -11 -11z"/>
<path d="M3255 6053 c-19 -27 -35 -53 -35 -59 0 -6 -9 -19 -20 -29 -11 -10
-20 -24 -20 -32 0 -8 -5 -11 -10 -8 -6 4 -7 12 -3 18 4 7 0 6 -10 -2 -18 -15
-23 -26 -7 -16 6 4 10 -5 10 -19 0 -14 4 -26 9 -26 15 0 33 29 25 41 -4 7 -3
9 4 5 6 -3 20 6 31 20 16 21 18 30 10 40 -9 11 -8 14 3 14 8 0 24 23 35 50 12
28 19 50 17 50 -2 0 -19 -21 -39 -47z"/>
<path d="M3405 6089 c-4 -6 -5 -12 -2 -15 2 -3 7 2 10 11 7 17 1 20 -8 4z"/>
<path d="M7200 6066 c0 -19 20 -32 20 -14 1 7 9 3 20 -11 13 -15 20 -18 20 -9
0 17 -31 48 -48 48 -7 0 -12 -6 -12 -14z"/>
<path d="M3491 6034 c0 -11 3 -14 6 -6 3 7 2 16 -1 19 -3 4 -6 -2 -5 -13z"/>
<path d="M7493 6030 c4 -14 7 -28 7 -32 0 -9 30 -11 30 -2 0 3 -10 18 -21 32
l-22 27 6 -25z"/>
<path d="M2981 6024 c0 -11 3 -14 6 -6 3 7 2 16 -1 19 -3 4 -6 -2 -5 -13z"/>
<path d="M3305 6021 c-3 -6 -10 -9 -15 -6 -4 3 -7 -3 -5 -12 2 -10 4 -25 5
-33 0 -8 7 0 16 19 14 32 13 54 -1 32z"/>
<path d="M3412 6018 c-16 -16 -15 -38 1 -38 8 0 8 -3 -2 -9 -8 -5 -21 -7 -29
-3 -10 3 -13 1 -8 -7 4 -6 15 -10 24 -9 11 2 16 -3 16 -14 -1 -10 3 -18 8 -18
6 0 6 -6 -1 -14 -8 -9 -8 -16 -2 -20 5 -4 12 -2 16 4 3 5 3 10 -2 10 -4 0 -1
5 7 10 10 6 11 10 3 10 -7 0 -13 4 -13 10 0 5 7 7 15 4 8 -4 15 -1 15 5 0 5
10 19 22 31 16 15 24 17 30 8 5 -8 8 -3 8 15 0 25 -2 27 -20 17 -11 -6 -20
-15 -20 -19 0 -5 -9 -11 -19 -14 -16 -4 -18 0 -14 24 5 31 -13 39 -35 17z"/>
<path d="M2860 6004 c0 -8 5 -12 10 -9 6 3 10 10 10 16 0 5 -4 9 -10 9 -5 0
-10 -7 -10 -16z"/>
<path d="M3160 6003 c0 -16 2 -16 10 -3 9 13 12 12 25 -4 8 -11 15 -15 15 -10
0 14 -22 34 -37 34 -7 0 -13 -8 -13 -17z"/>
<path d="M3333 5968 c3 -9 0 -22 -8 -28 -7 -6 -11 -19 -8 -30 4 -17 8 -18 27
-8 19 10 20 10 8 -5 -8 -9 -11 -21 -7 -27 3 -5 -1 -13 -9 -16 -9 -3 -13 -10
-10 -15 8 -13 24 -11 24 4 0 19 36 18 52 -1 8 -9 8 -13 1 -9 -6 4 -14 1 -16
-5 -3 -8 -6 -5 -6 5 -1 16 -6 15 -38 -11 -21 -17 -53 -44 -71 -61 -18 -17 -38
-30 -44 -28 -7 1 -12 -3 -13 -10 0 -6 -4 -15 -9 -20 -5 -4 -7 -3 -3 3 9 16
-21 54 -38 48 -8 -3 -17 -14 -20 -25 -4 -10 -17 -31 -29 -47 -13 -15 -23 -35
-23 -44 0 -15 3 -15 29 3 15 11 28 23 28 26 0 3 -7 0 -15 -7 -13 -11 -14 -10
-8 6 8 21 53 90 53 81 0 -3 -4 -17 -9 -31 -7 -18 -6 -28 4 -36 8 -7 12 -16 9
-21 -3 -5 3 -6 13 -3 12 4 10 0 -7 -15 -14 -11 -19 -21 -12 -21 6 0 12 -10 12
-22 0 -22 0 -22 23 2 12 14 21 28 19 33 -1 5 7 11 18 14 11 3 20 10 20 16 0
15 13 -1 16 -18 1 -8 -5 -15 -14 -15 -13 0 -14 -2 -3 -12 10 -11 16 -8 32 11
10 13 19 29 19 37 0 17 37 19 43 2 3 -7 4 -3 4 10 -1 12 -4 22 -8 22 -4 0 -10
8 -13 17 -6 16 -6 16 12 0 15 -14 21 -15 29 -5 19 24 25 58 11 59 -7 0 -3 4
10 9 26 11 31 33 5 23 -16 -6 -16 -5 -3 10 41 45 41 46 12 44 -18 -1 -26 2
-24 12 2 10 -4 12 -24 7 -23 -6 -26 -5 -16 7 15 18 5 72 -16 89 -13 11 -15 10
-9 -4z m37 -182 c0 -2 -8 -10 -17 -17 -16 -13 -17 -12 -4 4 13 16 21 21 21 13z"/>
<path d="M7155 5970 c-10 -17 3 -57 20 -64 10 -4 19 2 25 17 l9 22 0 -23 c1
-22 2 -22 17 -7 15 15 15 18 -2 37 -11 12 -13 18 -6 14 6 -4 12 -2 12 3 0 6
-7 11 -15 11 -8 0 -15 -7 -15 -17 0 -15 -2 -15 -19 1 -13 12 -21 14 -26 6z"/>
<path d="M7317 5959 c4 -13 8 -18 11 -10 2 7 -1 18 -6 23 -8 8 -9 4 -5 -13z"/>
<path d="M3210 5898 c-34 -36 -42 -55 -25 -62 18 -6 30 10 13 17 -9 4 -2 16
20 36 18 17 28 31 23 31 -6 0 -20 -10 -31 -22z"/>
<path d="M3270 5906 c-6 -8 -17 -13 -23 -10 -13 5 -42 -34 -33 -44 4 -3 15 4
26 16 12 12 30 22 40 22 11 0 20 7 20 15 0 19 -14 19 -30 1z"/>
<path d="M3385 5910 c3 -5 8 -10 11 -10 2 0 4 5 4 10 0 6 -5 10 -11 10 -5 0
-7 -4 -4 -10z"/>
<path d="M3050 5876 c0 -22 3 -27 11 -19 8 8 8 16 0 30 -9 16 -10 14 -11 -11z"/>
<path d="M3556 5868 c4 -6 0 -14 -7 -19 -8 -5 -9 -9 -3 -9 5 0 18 6 29 13 17
13 17 14 -4 20 -13 3 -19 1 -15 -5z"/>
<path d="M3137 5842 c-15 -15 -27 -32 -27 -37 0 -5 7 0 15 11 13 16 14 16 9 2
-4 -11 -1 -18 6 -18 7 0 9 -8 5 -22 -5 -19 -4 -20 5 -8 6 8 16 24 22 35 10 18
10 19 -7 5 -17 -14 -17 -13 -10 10 4 14 10 31 12 38 8 19 -1 15 -30 -16z"/>
<path d="M3277 5846 c-19 -14 -7 -33 13 -21 6 3 10 2 10 -3 0 -16 -12 -21 -34
-13 -19 8 -21 5 -22 -25 0 -19 1 -34 2 -34 2 0 10 12 18 28 8 15 15 20 16 13
0 -27 22 5 26 38 4 34 -2 37 -29 17z"/>
<path d="M7360 5851 c0 -21 13 -41 26 -41 8 0 14 5 14 10 0 6 -4 10 -10 10 -5
0 -10 7 -10 15 0 8 -4 15 -10 15 -5 0 -10 -4 -10 -9z"/>
<path d="M3220 5835 c-20 -24 -6 -28 15 -5 10 11 13 20 8 20 -6 0 -16 -7 -23
-15z"/>
<path d="M3605 5840 c-3 -6 1 -7 9 -4 18 7 21 14 7 14 -6 0 -13 -4 -16 -10z"/>
<path d="M7470 5839 c0 -8 7 -24 15 -35 18 -24 19 -7 0 26 -9 16 -14 19 -15 9z"/>
<path d="M7490 5840 c0 -5 5 -10 10 -10 6 0 10 5 10 10 0 6 -4 10 -10 10 -5 0
-10 -4 -10 -10z"/>
<path d="M7511 5814 c-6 -23 -7 -40 0 -47 5 -7 16 -21 24 -32 7 -11 17 -16 21
-12 5 4 2 13 -6 18 -11 8 -12 12 -3 16 10 4 10 9 1 26 -7 12 -11 29 -10 39 6
33 -17 27 -27 -8z"/>
<path d="M2982 5795 c2 -37 12 -45 22 -19 6 14 -9 54 -20 54 -2 0 -4 -16 -2
-35z"/>
<path d="M3516 5805 c-3 -8 -1 -15 4 -15 6 0 10 7 10 15 0 8 -2 15 -4 15 -2 0
-6 -7 -10 -15z"/>
<path d="M3443 5788 c-19 -25 -24 -38 -14 -38 11 0 35 39 28 46 -2 3 -9 -1
-14 -8z"/>
<path d="M3557 5789 c7 -7 15 -10 18 -7 3 3 -2 9 -12 12 -14 6 -15 5 -6 -5z"/>
<path d="M3117 5777 c-3 -9 -13 -14 -21 -11 -21 8 -43 -35 -25 -47 8 -5 17 -9
22 -9 4 0 7 -5 7 -11 0 -8 -5 -7 -15 1 -13 11 -14 10 -8 -6 5 -16 4 -17 -8 -7
-11 9 -18 6 -32 -13 -10 -13 -13 -24 -7 -24 5 0 10 4 10 8 0 5 6 9 14 9 8 0
12 -7 9 -16 -3 -9 8 0 25 19 18 22 26 38 19 42 -7 4 -5 15 7 33 9 14 16 31 13
38 -2 6 -6 4 -10 -6z"/>
<path d="M3010 5742 c-21 -17 -21 -42 0 -42 14 0 40 30 40 46 0 19 -13 18 -40
-4z"/>
<path d="M7290 5741 c0 -25 6 -27 13 -6 4 8 2 17 -3 20 -6 4 -10 -3 -10 -14z"/>
<path d="M3126 5733 c-6 -14 -5 -15 5 -6 7 7 10 15 7 18 -3 3 -9 -2 -12 -12z"/>
<path d="M7481 5720 c13 -35 21 -39 15 -7 -3 12 -5 25 -5 30 -1 4 -5 7 -10 7
-6 0 -6 -12 0 -30z"/>
<path d="M3736 5708 c-9 -12 -16 -19 -16 -14 0 5 -7 3 -15 -4 -11 -9 -15 -9
-15 -1 0 7 -5 9 -11 5 -8 -5 -8 -9 1 -14 15 -9 9 -45 -7 -45 -7 0 -18 -6 -24
-12 -7 -7 -19 -13 -27 -13 -12 0 -12 -3 -2 -15 10 -11 16 -12 26 -4 10 8 9 3
-2 -20 -18 -36 -29 -41 -19 -10 7 21 7 21 -18 3 -16 -12 -21 -22 -14 -26 6 -4
14 -5 18 -2 4 2 9 -2 12 -8 4 -14 47 49 47 69 0 7 8 22 17 33 10 11 18 28 18
38 0 9 5 16 11 15 14 -3 50 35 42 43 -3 3 -13 -5 -22 -18z"/>
<path d="M3381 5679 c-6 -18 -11 -33 -11 -35 0 -1 11 3 25 9 29 14 32 24 8 30
-13 3 -12 5 5 6 13 0 20 6 17 11 -12 20 -33 9 -44 -21z"/>
<path d="M7580 5687 c0 -8 7 -21 16 -28 14 -11 15 -10 12 11 -3 26 -28 41 -28
17z"/>
<path d="M2999 5671 c-13 -11 -21 -22 -18 -25 3 -3 16 5 29 19 28 30 22 33
-11 6z"/>
<path d="M3906 5668 c3 -4 9 -8 15 -8 5 0 9 4 9 8 0 5 -7 9 -15 9 -8 0 -12 -4
-9 -9z"/>
<path d="M3152 5643 c-5 -16 -14 -37 -18 -48 -6 -17 -5 -18 7 -9 11 9 17 9 27
-2 7 -8 8 -14 2 -14 -5 0 -10 -5 -10 -12 0 -6 -10 -23 -22 -37 l-23 -24 26 18
c39 29 49 59 33 91 -8 15 -12 35 -9 46 10 29 -2 21 -13 -9z"/>
<path d="M3325 5650 c-9 -28 -29 -50 -44 -50 -6 0 -11 -4 -11 -9 0 -5 -3 -17
-6 -25 -5 -12 -2 -15 12 -10 17 6 17 5 -1 -9 -11 -9 -15 -17 -8 -17 7 0 10 -7
6 -17 -5 -14 1 -12 21 7 16 15 25 32 23 42 -3 10 -1 16 4 12 5 -3 14 6 21 20
6 15 16 26 22 25 26 -3 36 2 35 19 0 16 -1 16 -12 0 -11 -16 -13 -15 -33 9
l-21 27 -8 -24z"/>
<path d="M3766 5658 c-11 -35 5 -65 18 -35 3 6 4 0 1 -14 -2 -14 -2 -29 1 -32
9 -9 44 16 44 31 0 7 -4 11 -9 8 -5 -3 -14 8 -20 24 -10 31 -29 40 -35 18z"/>
<path d="M3025 5629 c-11 -17 1 -21 15 -4 8 9 8 15 2 15 -6 0 -14 -5 -17 -11z"/>
<path d="M3441 5616 c-12 -13 -19 -26 -14 -29 11 -7 73 31 73 44 0 18 -37 8
-59 -15z"/>
<path d="M3515 5620 c-3 -5 -1 -10 4 -10 6 0 11 5 11 10 0 6 -2 10 -4 10 -3 0
-8 -4 -11 -10z"/>
<path d="M3840 5620 c0 -5 5 -10 10 -10 6 0 10 5 10 10 0 6 -4 10 -10 10 -5 0
-10 -4 -10 -10z"/>
<path d="M3091 5584 c0 -11 3 -14 6 -6 3 7 2 16 -1 19 -3 4 -6 -2 -5 -13z"/>
<path d="M3242 5588 c-14 -14 -16 -28 -3 -28 5 0 11 9 14 20 6 23 5 24 -11 8z"/>
<path d="M3373 5593 c-15 -5 -17 -23 -4 -23 5 0 11 7 15 15 3 8 4 15 3 14 -1
0 -8 -3 -14 -6z"/>
<path d="M3194 5559 c-13 -15 -15 -23 -7 -26 7 -2 9 -11 6 -19 -3 -8 0 -14 5
-14 11 0 28 67 20 76 -3 2 -13 -6 -24 -17z"/>
<path d="M3886 5565 c4 -10 -1 -12 -18 -8 -23 5 -23 5 -3 -10 14 -11 24 -12
32 -5 17 14 16 25 -1 31 -10 4 -13 1 -10 -8z"/>
<path d="M3810 5560 c-9 -6 -10 -10 -3 -10 6 0 15 5 18 10 8 12 4 12 -15 0z"/>
<path d="M7544 5535 c-10 -20 -9 -27 5 -40 29 -26 44 14 19 48 -12 15 -14 15
-24 -8z"/>
<path d="M3395 5540 c3 -5 1 -10 -4 -10 -6 0 -11 -4 -11 -10 0 -6 10 -5 25 2
19 8 22 14 13 20 -18 11 -30 10 -23 -2z"/>
<path d="M2170 5521 c0 -25 6 -27 13 -6 4 8 2 17 -3 20 -6 4 -10 -3 -10 -14z"/>
<path d="M4360 5530 c-8 -5 -12 -12 -9 -15 4 -3 12 1 19 10 14 17 11 19 -10 5z"/>
<path d="M3567 5523 c-4 -3 -7 -11 -7 -17 0 -6 5 -5 12 2 6 6 9 14 7 17 -3 3
-9 2 -12 -2z"/>
<path d="M7501 5514 c0 -11 3 -14 6 -6 3 7 2 16 -1 19 -3 4 -6 -2 -5 -13z"/>
<path d="M7701 5500 c1 -8 5 -26 9 -40 l8 -25 1 25 c0 14 -4 32 -9 40 -9 13
-10 13 -9 0z"/>
<path d="M2260 5450 c0 -5 5 -10 10 -10 6 0 10 5 10 10 0 6 -4 10 -10 10 -5 0
-10 -4 -10 -10z"/>
<path d="M4150 5400 c-9 -6 -10 -10 -3 -10 6 0 15 5 18 10 8 12 4 12 -15 0z"/>
<path d="M4087 5382 c-26 -28 -20 -39 6 -14 13 12 27 19 32 15 4 -5 5 -2 1 5
-10 17 -20 15 -39 -6z"/>
<path d="M4335 5380 c-8 -13 5 -13 25 0 13 8 13 10 -2 10 -9 0 -20 -4 -23 -10z"/>
<path d="M3885 5371 c-3 -5 -1 -12 5 -16 5 -3 10 1 10 9 0 18 -6 21 -15 7z"/>
<path d="M4145 5370 c-19 -8 -19 -9 2 -9 12 -1 25 4 28 9 7 12 -2 12 -30 0z"/>
<path d="M4160 5339 c0 -5 5 -7 10 -4 6 3 10 8 10 11 0 2 -4 4 -10 4 -5 0 -10
-5 -10 -11z"/>
<path d="M3027 5216 c-4 -11 -13 -16 -22 -12 -8 3 -15 1 -15 -5 0 -6 -9 -8
-19 -4 -11 3 -22 1 -26 -4 -4 -7 1 -8 12 -4 15 5 16 4 7 -8 -19 -24 -25 -67
-11 -72 7 -4 6 -6 -5 -6 -11 -1 -15 -7 -11 -21 8 -29 20 -33 44 -17 15 11 17
16 7 20 -9 4 -9 6 -1 6 6 1 15 -4 18 -9 11 -17 37 18 39 53 1 18 0 48 -3 67
-5 28 -8 31 -14 16z"/>
<path d="M4213 5224 c3 -4 -4 -15 -16 -25 -12 -10 -16 -18 -9 -19 6 0 12 5 12
10 0 6 5 10 11 10 6 0 9 -7 6 -14 -4 -10 -1 -13 9 -9 7 3 14 0 14 -7 0 -6 5
-8 10 -5 15 9 12 25 -5 25 -8 0 -15 9 -15 20 0 11 -5 20 -12 20 -6 0 -9 -3 -5
-6z"/>
<path d="M3334 5193 c-3 -10 -10 -26 -15 -35 -14 -27 -11 -46 5 -25 7 9 18 17
24 17 6 0 14 5 18 12 5 8 2 9 -9 5 -19 -7 -22 4 -6 20 8 8 8 13 0 18 -6 3 -14
-2 -17 -12z"/>
<path d="M4150 5189 c0 -5 5 -7 10 -4 6 3 10 8 10 11 0 2 -4 4 -10 4 -5 0 -10
-5 -10 -11z"/>
<path d="M2834 5178 c-4 -7 -15 -24 -23 -38 l-16 -25 27 20 c15 11 28 28 28
38 0 20 -6 22 -16 5z"/>
<path d="M4025 5170 c-12 -4 -27 -16 -35 -26 -13 -16 -13 -17 0 -9 8 5 21 10
29 12 16 2 37 21 30 27 -2 2 -13 0 -24 -4z"/>
<path d="M2890 5156 c0 -7 -11 -30 -25 -50 -21 -30 -22 -38 -10 -42 31 -12 59
17 79 84 6 19 4 22 -18 22 -15 0 -26 -6 -26 -14z"/>
<path d="M4170 5159 c0 -6 -8 -18 -18 -27 -9 -10 -13 -14 -8 -10 4 3 14 4 20
2 6 -2 16 4 23 15 10 16 9 20 -2 25 -8 3 -15 1 -15 -5z"/>
<path d="M2837 5132 c-28 -29 -35 -52 -16 -52 6 0 17 7 25 15 14 13 13 15 -3
15 -15 0 -14 3 7 20 14 10 22 21 19 24 -3 3 -18 -7 -32 -22z"/>
<path d="M3339 5123 c-13 -16 -12 -17 4 -4 9 7 17 15 17 17 0 8 -8 3 -21 -13z"/>
<path d="M3360 5111 c-6 -12 -17 -21 -25 -21 -8 0 -15 -4 -15 -10 0 -5 -7 -7
-15 -4 -8 4 -15 2 -15 -4 0 -5 10 -8 23 -7 12 1 28 3 35 4 13 1 36 50 28 58
-2 3 -9 -5 -16 -16z"/>
<path d="M3287 5109 c7 -7 15 -10 18 -7 3 3 -2 9 -12 12 -14 6 -15 5 -6 -5z"/>
<path d="M4022 5111 c2 -18 -3 -24 -12 -11 -7 12 -12 11 -27 -6 -10 -11 -27
-19 -38 -17 -11 1 -14 0 -7 -3 6 -3 9 -11 5 -17 -4 -7 0 -8 10 -4 46 19 50 18
26 -1 -15 -12 -38 -26 -53 -32 -14 -5 -26 -13 -26 -18 0 -14 41 -7 51 9 7 11
9 11 9 -4 0 -9 -9 -25 -20 -34 -11 -10 -20 -22 -20 -28 0 -5 5 -3 10 5 6 10
10 11 10 3 0 -7 4 -13 10 -13 5 0 7 6 4 14 -3 8 -1 17 5 21 6 3 11 15 11 26 0
10 6 19 14 19 7 0 25 12 40 26 14 15 26 21 26 15 0 -7 5 -9 11 -5 8 4 7 9 -2
15 -8 5 -20 2 -31 -8 -15 -13 -18 -13 -18 -2 0 8 12 22 26 30 25 15 25 16 5
22 -11 3 -20 2 -19 -2z"/>
<path d="M3832 5076 c2 -1 10 -7 19 -14 13 -10 19 -9 28 2 10 12 7 15 -18 14
-17 -1 -30 -2 -29 -2z"/>
<path d="M4260 5070 c-9 -6 -10 -10 -3 -10 6 0 15 5 18 10 8 12 4 12 -15 0z"/>
<path d="M2987 5043 c-12 -12 -7 -25 7 -20 8 3 16 1 19 -6 2 -6 6 -3 10 7 4
10 3 15 -3 11 -6 -3 -10 -1 -10 4 0 12 -13 14 -23 4z"/>
<path d="M4035 5020 c-10 -11 -14 -20 -9 -20 5 0 15 9 22 20 7 11 11 20 9 20
-2 0 -12 -9 -22 -20z"/>
<path d="M7630 5033 c0 -4 5 -15 10 -23 8 -13 10 -13 10 2 0 9 -4 20 -10 23
-5 3 -10 3 -10 -2z"/>
<path d="M3074 5015 c-4 -8 -14 -15 -24 -15 -21 0 -35 -29 -21 -43 10 -10 42
8 39 21 -1 4 3 17 10 30 7 12 10 22 7 22 -3 0 -8 -7 -11 -15z"/>
<path d="M3849 4983 c-13 -16 -12 -17 4 -4 16 13 21 21 13 21 -2 0 -10 -8 -17
-17z"/>
<path d="M4140 4959 c0 -7 -8 -18 -17 -26 -15 -12 -15 -14 -2 -10 9 3 22 1 30
-4 11 -7 12 -12 2 -29 -16 -24 -17 -70 -2 -70 6 0 8 9 4 21 -8 23 20 88 44
106 9 6 13 15 9 19 -5 4 -16 -3 -27 -14 -10 -12 -24 -22 -32 -22 -10 0 -10 3
-1 12 15 15 16 28 2 28 -5 0 -10 -5 -10 -11z"/>
<path d="M7643 4955 c-8 -22 6 -33 17 -15 13 20 12 30 0 30 -6 0 -13 -7 -17
-15z"/>
<path d="M3775 4940 c-3 -5 -1 -10 4 -10 6 0 11 5 11 10 0 6 -2 10 -4 10 -3 0
-8 -4 -11 -10z"/>
<path d="M3813 4936 c-6 -8 -9 -17 -6 -20 7 -7 33 13 33 25 0 13 -13 10 -27
-5z"/>
<path d="M4121 4901 c-8 -5 -9 -11 -3 -15 5 -3 15 1 22 9 14 16 3 20 -19 6z"/>
<path d="M3889 4883 c-13 -15 -12 -15 9 -4 23 12 28 21 13 21 -5 0 -15 -7 -22
-17z"/>
<path d="M3850 4854 c0 -14 -3 -14 -16 -4 -13 12 -14 10 -3 -13 17 -37 39 -35
39 3 0 17 -4 30 -10 30 -5 0 -10 -7 -10 -16z"/>
<path d="M4106 4855 c-3 -8 -1 -15 4 -15 6 0 10 7 10 15 0 8 -2 15 -4 15 -2 0
-6 -7 -10 -15z"/>
<path d="M3137 4846 c-41 -42 -5 -61 48 -26 29 19 25 29 -5 10 -11 -7 -16 -4
-20 12 -5 20 -6 20 -23 4z"/>
<path d="M3744 4786 c-6 -20 -7 -39 -3 -42 16 -10 10 -37 -7 -30 -8 3 -12 2
-9 -4 8 -13 35 -13 35 0 0 6 6 10 14 10 8 0 18 10 22 23 3 12 13 30 22 40 15
16 14 17 -1 11 -9 -3 -17 -10 -17 -14 0 -17 -39 3 -42 22 -2 14 -6 10 -14 -16z"/>
<path d="M3716 4784 c-9 -24 -2 -26 12 -4 7 11 8 20 3 20 -5 0 -12 -7 -15 -16z"/>
<path d="M3839 4791 c-1 -6 -2 -16 -3 -21 0 -6 -8 -15 -16 -20 -8 -5 -10 -10
-5 -10 15 1 45 26 45 38 0 14 -20 26 -21 13z"/>
<path d="M3150 4779 c0 -6 -7 -9 -15 -6 -11 5 -12 1 -5 -17 5 -13 6 -27 3 -30
-4 -3 1 -6 11 -6 13 0 16 5 11 20 -4 12 -1 27 5 35 9 11 9 15 1 15 -6 0 -11
-5 -11 -11z"/>
<path d="M3697 4749 c7 -7 15 -10 18 -7 3 3 -2 9 -12 12 -14 6 -15 5 -6 -5z"/>
<path d="M3515 4624 c-9 -9 -14 -21 -12 -28 5 -16 32 -13 32 4 0 8 4 21 8 28
12 18 -9 15 -28 -4z"/>
<path d="M4187 4573 c-13 -13 -7 -21 13 -16 11 3 17 9 14 14 -6 11 -18 12 -27
2z"/>
<path d="M4235 4460 c-3 -6 1 -7 9 -4 18 7 21 14 7 14 -6 0 -13 -4 -16 -10z"/>
<path d="M4318 4420 c-6 -16 15 -43 26 -33 10 10 7 25 -3 18 -5 -3 -11 3 -13
12 -3 15 -5 15 -10 3z"/>
<path d="M4346 4348 c3 -5 10 -6 15 -3 13 9 11 12 -6 12 -8 0 -12 -4 -9 -9z"/>
<path d="M4260 4310 c-8 -5 -10 -10 -5 -10 6 0 17 5 25 10 8 5 11 10 5 10 -5
0 -17 -5 -25 -10z"/>
<path d="M4163 4253 c9 -2 23 -2 30 0 6 3 -1 5 -18 5 -16 0 -22 -2 -12 -5z"/>
<path d="M4070 4230 c-8 -5 -10 -10 -5 -10 6 0 17 5 25 10 8 5 11 10 5 10 -5
0 -17 -5 -25 -10z"/>
<path d="M3874 4135 c-10 -8 -14 -15 -8 -15 6 0 17 7 24 15 16 19 9 19 -16 0z"/>
<path d="M3880 4110 c-13 -8 -13 -10 2 -10 9 0 20 5 23 10 8 13 -5 13 -25 0z"/>
<path d="M3630 4100 c-20 -12 -10 -19 14 -10 11 3 15 9 10 13 -6 3 -16 2 -24
-3z"/>
<path d="M3790 4078 c-12 -22 -12 -22 6 -6 10 10 15 20 12 24 -4 3 -12 -5 -18
-18z"/>
<path d="M3391 3701 c-8 -6 -9 -11 -3 -15 6 -3 14 -1 17 5 9 14 2 20 -14 10z"/>
<path d="M3586 3644 c-5 -14 -4 -15 9 -4 17 14 19 20 6 20 -5 0 -12 -7 -15
-16z"/>
<path d="M2690 3420 c0 -5 7 -10 15 -10 8 0 15 5 15 10 0 6 -7 10 -15 10 -8 0
-15 -4 -15 -10z"/>
</g>
</svg>
