<svg width="24" height="24" viewBox="0 0 24 24" fill="none" xmlns="http://www.w3.org/2000/svg">
<path d="M14.6371 4.88776C14.6369 4.72048 14.5896 4.55665 14.5007 4.41511C14.4118 4.27357 14.2848 4.16007 14.1345 4.08764C13.9841 4.01521 13.8164 3.9868 13.6507 4.00568C13.485 4.02455 13.3279 4.08993 13.1976 4.19432L9.00831 7.55485H4.88643C4.65133 7.55485 4.42587 7.64852 4.25963 7.81524C4.09339 7.98197 4 8.2081 4 8.44388V15.5561C4 15.7919 4.09339 16.018 4.25963 16.1848C4.42587 16.3515 4.65133 16.4451 4.88643 16.4451H9.00831L13.1976 19.8057C13.3279 19.9101 13.485 19.9755 13.6507 19.9943C13.8164 20.0132 13.9841 19.9848 14.1345 19.9124C14.2848 19.8399 14.4118 19.7264 14.5007 19.5849C14.5896 19.4434 14.6369 19.2795 14.6371 19.1122V4.88776ZM20 12C20.0014 13.0509 19.7956 14.0918 19.3946 15.0628C18.9936 16.0337 18.4053 16.9156 17.6634 17.6578L16.41 16.4007C16.987 15.8234 17.4446 15.1375 17.7565 14.3822C18.0683 13.627 18.2283 12.8174 18.2271 12C18.2282 11.1826 18.0682 10.373 17.7563 9.61782C17.4445 8.86262 16.9869 8.17664 16.41 7.5993L17.6634 6.34222C18.4053 7.08439 18.9936 7.9663 19.3946 8.93725C19.7956 9.9082 20.0014 10.9491 20 12V12Z" fill="#E9E9E9"/>
</svg>
