<svg width="70" height="70" viewBox="0 0 70 70" fill="none" xmlns="http://www.w3.org/2000/svg">
<circle cx="35" cy="35" r="35" fill="url(#paint0_linear_7_323)"/>
<path d="M29.5312 22.5C30.4015 22.5 31.2361 22.939 31.8514 23.7204C32.4668 24.5018 32.8125 25.5616 32.8125 26.6667V43.3333C32.8125 44.4384 32.4668 45.4982 31.8514 46.2796C31.2361 47.061 30.4015 47.5 29.5312 47.5C28.661 47.5 27.8264 47.061 27.2111 46.2796C26.5957 45.4982 26.25 44.4384 26.25 43.3333V26.6667C26.25 25.5616 26.5957 24.5018 27.2111 23.7204C27.8264 22.939 28.661 22.5 29.5312 22.5ZM40.4688 22.5C41.339 22.5 42.1736 22.939 42.7889 23.7204C43.4043 24.5018 43.75 25.5616 43.75 26.6667V43.3333C43.75 44.4384 43.4043 45.4982 42.7889 46.2796C42.1736 47.061 41.339 47.5 40.4688 47.5C39.5985 47.5 38.7639 47.061 38.1486 46.2796C37.5332 45.4982 37.1875 44.4384 37.1875 43.3333V26.6667C37.1875 25.5616 37.5332 24.5018 38.1486 23.7204C38.7639 22.939 39.5985 22.5 40.4688 22.5Z" fill="white"/>
<defs>
<linearGradient id="paint0_linear_7_323" x1="35" y1="0" x2="35" y2="70" gradientUnits="userSpaceOnUse">
<stop stop-color="#B35DE3"/>
<stop offset="1" stop-color="#5E28FB"/>
</linearGradient>
</defs>
</svg>
