<svg width="24" height="24" viewBox="0 0 24 24" fill="none" xmlns="http://www.w3.org/2000/svg">
<path d="M17.304 21.015C18.4898 19.8325 19.4302 18.4273 20.0712 16.8802C20.7121 15.3331 21.0411 13.6746 21.039 12C21.0411 10.3254 20.7121 8.66686 20.0712 7.11976C19.4302 5.57267 18.4898 4.16749 17.304 2.985L16.242 4.0455C17.2883 5.08889 18.1181 6.32876 18.6836 7.69386C19.2492 9.05897 19.5394 10.5224 19.5375 12C19.5375 15.1065 18.2775 17.919 16.242 19.9545L17.304 21.015V21.015Z" fill="#E9E9E9"/>
<path d="M15.1815 18.894C16.0882 17.9897 16.8073 16.9151 17.2974 15.732C17.7876 14.5489 18.0391 13.2806 18.0375 12C18.0391 10.7194 17.7876 9.45111 17.2974 8.26801C16.8073 7.08491 16.0882 6.01033 15.1815 5.106L14.121 6.1665C14.8882 6.93172 15.4967 7.84101 15.9114 8.84211C16.3261 9.84322 16.5389 10.9164 16.5375 12C16.5393 13.0837 16.3268 14.1572 15.9124 15.1585C15.4979 16.1599 14.8896 17.0695 14.1225 17.835L15.1815 18.894Z" fill="#E9E9E9"/>
<path d="M13.0605 16.773C13.6882 16.1469 14.186 15.4029 14.5253 14.5838C14.8646 13.7647 15.0387 12.8866 15.0375 12C15.0387 11.1134 14.8646 10.2353 14.5253 9.41621C14.186 8.5971 13.6882 7.85311 13.0605 7.227L12 8.2875C12.4882 8.77451 12.8754 9.3532 13.1393 9.99031C13.4031 10.6274 13.5385 11.3104 13.5375 12C13.5384 12.6896 13.403 13.3725 13.1391 14.0096C12.8753 14.6468 12.4882 15.2255 12 15.7125L13.0605 16.773ZM10.0755 5.325C10.2026 5.38622 10.3098 5.48202 10.3849 5.60141C10.46 5.72081 10.4999 5.85896 10.5 6V18C10.4998 18.1411 10.4598 18.2793 10.3846 18.3987C10.3093 18.5181 10.2019 18.6139 10.0747 18.675C9.9475 18.7361 9.80562 18.7601 9.6654 18.7441C9.52517 18.7282 9.39228 18.6731 9.282 18.585L5.7375 15.75H2.25C2.05109 15.75 1.86032 15.671 1.71967 15.5303C1.57902 15.3897 1.5 15.1989 1.5 15V9C1.5 8.80109 1.57902 8.61033 1.71967 8.46967C1.86032 8.32902 2.05109 8.25 2.25 8.25H5.7375L9.282 5.415C9.39236 5.32678 9.52539 5.27153 9.66578 5.25561C9.80616 5.23969 9.94819 5.26374 10.0755 5.325V5.325Z" fill="#E9E9E9"/>
</svg>
